<svg class="icon svg-icon svg-icon-bold" viewBox="0 0 32 32"><path d="M12 10h3.79c1.65 0 2.845.24 3.58.722.736.482 1.104 1.242 1.104 2.282 0 .7-.18 1.283-.542 1.748-.36.466-.88.758-1.56.88v.08c.843.16 1.463.473 1.86.94.396.468.594 1.102.594 1.9 0 1.08-.376 1.923-1.128 2.533-.753.61-1.8.915-3.14.915H12V10zm2 4.958h2.076c.82 0 1.42-.13 1.798-.39.377-.26.566-.702.566-1.326 0-.562-.44-1.222-1.44-1.222h-3v2.938zM14 17v3h2c.82 0 1.714.193 2.132-.122.42-.314.628-.81.628-1.49C18.76 18.118 19 17 17 17h-3z" fill-rule="evenodd"></path></svg>