<svg xmlns="http://www.w3.org/2000/svg" xmlns:xlink="http://www.w3.org/1999/xlink" version="1.1" x="0px" y="0px" viewBox="-200 -200 1400 1400" enable-background="new 0 0 1000 1000" xml:space="preserve">
<metadata> Svg Vector Icons : http://www.onlinewebfonts.com/icon </metadata>
<g><g transform="translate(0.000000,512.000000) scale(0.100000,-0.100000)"><path d="M4621,5016.4c-1005.8-103.5-1825.8-415.7-2590.3-986.7c-241.4-180.1-762.5-701.2-942.6-942.6C568.9,2389.8,250.9,1613.8,124.4,726.8c-32.6-226.1-32.6-980.9,0-1207c126.5-889,446.4-1672.6,965.6-2360.4c180.1-239.5,546-618.8,795.1-823.8c986.7-812.3,2285.6-1214.7,3540.5-1097.8C6563.7-4655,7581-4187.5,8403-3392.4c852.6,827.7,1366,1896.7,1477.1,3084.6C9997,947.1,9594.6,2246.1,8782.3,3232.8c-779.8,946.5-1862.2,1557.6-3098,1747.3C5490.8,5008.8,4789.6,5033.7,4621,5016.4z M5636.4,4367c178.2-28.7,561.3-115,576.7-130.3c3.8-3.8,5.8-620.8,3.8-1369.9l-5.7-1364.1L4881.6,2832.3L3551.9,4162l183.9,59.4c212.7,67.1,584.3,145.6,820,172.4C4778.1,4418.7,5404.6,4403.4,5636.4,4367z M7052.3,3886.1c672.5-375.5,1237.7-913.9,1620.8-1550l101.5-166.7l-971.4-971.4l-969.4-969.4V2112c0,1034.6,5.7,1881.4,13.4,1881.4C6853,3993.4,6946.9,3945.5,7052.3,3886.1z M3921.7,2930l967.5-967.5H3005.9c-1034.6,0-1881.4,5.7-1881.4,13.4c0,24.9,218.4,400.4,325.7,563.3c272.1,404.3,672.5,812.3,1074.8,1095.9c126.4,90.1,402.3,260.6,419.6,262.5C2950.4,3897.6,3389.1,3462.7,3921.7,2930z M9092.7,1378.2c226.1-705,249.1-1509.7,67.1-2274.2l-49.8-206.9H7738.2H6364.5L7696,228.6c731.9,731.9,1333.4,1331.5,1335.4,1331.5C9033.3,1560.2,9062,1477.8,9092.7,1378.2z M2293.2,17.9C1341-934.3,957.8-1306,948.3-1286.8c-36.4,63.2-149.4,502-189.7,730c-36.4,208.8-44.1,318-44.1,670.6c-1.9,454.1,21.1,655.2,116.9,1040.3l47.9,195.4H2253h1371.8L2293.2,17.9z M5253.2,1320.7c456-95.8,843-482.8,938.8-938.8c182-869.8-586.3-1638.1-1456.1-1456.1c-348.7,72.8-674.4,325.7-831.5,641.8c-180.1,367.9-180.1,743.4,0,1111.2C4145.9,1167.4,4707.2,1435.7,5253.2,1320.7z M3155.4-1869.3v-1879.5l-166.7,86.2c-661,342.9-1272.1,915.8-1663,1561.4L1216.5-1921l963.7,963.7C2710.9-426.6,3147.7,8.3,3149.6,8.3C3153.4,8.3,3155.4-836.6,3155.4-1869.3z M5107.6-2585.8l1329.6-1329.6l-183.9-59.4c-712.7-228-1502.1-251-2278-67.1l-206.9,49.8v1367.9c0,753,1.9,1367.9,5.7,1367.9C3776.1-1256.2,4375.8-1853.9,5107.6-2585.8z M8780.4-1882.7c-342.9-662.9-940.7-1299-1574.8-1672.6l-166.7-99.6l-969.5,969.4L5100-1716h1883.3h1883.3L8780.4-1882.7z"/></g></g>
</svg>