<?xml version="1.0" encoding="iso-8859-1"?>
<!-- Generator: Adobe Illustrator 19.0.0, SVG Export Plug-In . SVG Version: 6.00 Build 0)  -->
<svg version="1.1" id="Capa_1" xmlns="http://www.w3.org/2000/svg" xmlns:xlink="http://www.w3.org/1999/xlink" x="0px" y="0px"
	 viewBox="0 0 512 512" style="enable-background:new 0 0 512 512;" xml:space="preserve">
<g>
	<g>
		<path d="M467,0H45C20.187,0,0,20.187,0,45v422c0,24.813,20.187,45,45,45h422c24.813,0,45-20.187,45-45V45
			C512,20.187,491.813,0,467,0z M482,467c0,8.271-6.729,15-15,15H45c-8.271,0-15-6.729-15-15V256.003
			c0.001,2.787,0.777,5.574,2.329,8.023c1.008,1.591,25.134,39.408,64.178,77.685C139.614,383.97,195.166,421,256,421
			c60.844,0,116.396-37.041,159.493-79.289c39.044-38.276,63.17-76.093,64.179-77.685c1.551-2.448,2.327-5.234,2.328-8.02V467z
			 M63.117,255.992C84.279,225.808,164.378,121,256,121c91.443,0,171.685,104.832,192.883,135.008
			C427.714,286.201,347.615,391,256,391C164.55,391,84.306,286.156,63.117,255.992z M482,255.993
			c-0.001-2.786-0.777-5.572-2.328-8.02c-1.009-1.591-25.135-39.408-64.179-77.685C372.385,128.03,316.834,91,256,91
			c-60.842,0-116.396,37.04-159.493,79.289c-39.044,38.276-63.17,76.093-64.178,77.685c-1.552,2.449-2.328,5.236-2.329,8.023V45
			c0-8.271,6.729-15,15-15h422c8.271,0,15,6.729,15,15V255.993z"/>
	</g>
</g>
<g>
	<g>
		<path d="M256,151c-57.828,0-105,47.017-105,105c0,57.702,46.933,105,105,105c57.783,0,105-46.969,105-105
			C361,198.116,313.892,151,256,151z M211,196.041v51.299l-26.126-15.084C189.75,217.69,198.965,205.096,211,196.041z
			 M199.905,305.707c-9.874-11.13-16.486-25.205-18.348-40.725L226,290.641L199.905,305.707z M271,329.491
			c-4.848,0.988-9.864,1.509-15,1.509c-10.451,0-20.406-2.155-29.453-6.034c8.191-4.729,34.291-19.798,44.453-25.665V329.491z
			 M271,264.66l-15,8.661l-15-8.66V247.34l15-8.661l15,8.66V264.66z M241,212.699v-30.19c4.848-0.988,9.864-1.509,15-1.509
			c10.451,0,20.406,2.155,29.453,6.033L241,212.699z M301,315.959V264.66l26.125,15.083C322.25,294.31,313.035,306.904,301,315.959z
			 M286,221.359l26.095-15.066c9.874,11.13,16.487,25.205,18.348,40.726L286,221.359z"/>
	</g>
</g>
<g>
</g>
<g>
</g>
<g>
</g>
<g>
</g>
<g>
</g>
<g>
</g>
<g>
</g>
<g>
</g>
<g>
</g>
<g>
</g>
<g>
</g>
<g>
</g>
<g>
</g>
<g>
</g>
<g>
</g>
</svg>
