<svg xmlns="http://www.w3.org/2000/svg" xmlns:xlink="http://www.w3.org/1999/xlink" width="440" height="578" viewBox="0 0 440 578">
    <defs>
        <path id="prefix__a" d="M0 0H440V578H0z"/>
        <path id="prefix__d" d="M0.623 0.049L67.141 0.049 67.141 58.413 0.623 58.413z"/>
        <filter id="prefix__c" width="111.7%" height="108.9%" x="-5.9%" y="-4.4%" filterUnits="objectBoundingBox">
            <feOffset dx="4" dy="4" in="SourceAlpha" result="shadowOffsetOuter1"/>
            <feGaussianBlur in="shadowOffsetOuter1" result="shadowBlurOuter1" stdDeviation="4"/>
            <feColorMatrix in="shadowBlurOuter1" result="shadowMatrixOuter1" values="0 0 0 0 0 0 0 0 0 0 0 0 0 0 0 0 0 0 0.3 0"/>
            <feMerge>
                <feMergeNode in="shadowMatrixOuter1"/>
                <feMergeNode in="SourceGraphic"/>
            </feMerge>
        </filter>
    </defs>
    <g fill="none" fill-rule="evenodd">
        <mask id="prefix__b" fill="#fff">
            <use xlink:href="#prefix__a"/>
        </mask>
        <use fill="#FAFAFA" xlink:href="#prefix__a"/>
        <rect width="476" height="28" y="524" fill="#ECECEC" mask="url(#prefix__b)" rx="14"/>
        <g filter="url(#prefix__c)" mask="url(#prefix__b)">
            <g>
                <path fill="#4EBBFF" d="M226.075 256.314L215.542 250.639 257 206 84 206 84 333 154.959 333z" transform="matrix(-1 0 0 1 557 21)"/>
                <g>
                    <path fill="#FCEBE7" d="M297.448 208.344l.178.205-60.559 68.295-125.022-70.706 3.985-89.836 140.887 1.708v2.964c0 4.174.51 8.332 1.519 12.383 6.9 27.72 20.283 53.414 39.012 74.987" transform="matrix(-1 0 0 1 557 21)"/>
                    <path fill="#FFB700" d="M276.39 142.534c0 4.508-5.28 8.162-11.791 8.162-6.512 0-11.791-3.654-11.791-8.162 0-4.507 5.279-8.16 11.79-8.16 6.512 0 11.791 3.653 11.791 8.16" transform="matrix(-1 0 0 1 557 21)"/>
                    <g transform="matrix(-1 0 0 1 557 21) translate(324.046 263.444)">
                        <mask id="prefix__e" fill="#fff">
                            <use xlink:href="#prefix__d"/>
                        </mask>
                        <path fill="#4EBBFF" d="M.623.049s5.82 14.915 59.094 35.777c5.838 2.288 8.83 8.789 6.78 14.713-2.193 6.334-9.25 9.533-15.46 7.01L2.734 37.92.623.049z" mask="url(#prefix__e)"/>
                    </g>
                    <path fill="#FCDE5D" d="M220.036 79.786L248.53 48.73l5.458 41.733s-19.157 1.078-33.95-10.678" transform="matrix(-1 0 0 1 557 21)"/>
                    <path fill="#FFB700" d="M248.478 48.674l5.458 41.733s-7.792.727-13.876-1.208l8.418-40.525z" transform="matrix(-1 0 0 1 557 21)"/>
                    <path fill="#01003D" d="M186.102 395.876s2.807 51.305-7.099 106.765c-1.321 7.414 4.363 14.224 11.894 14.224 6.1 0 11.242-4.538 12-10.591 2.743-21.874 8.668-73.109 9.092-110.398h-25.887z" transform="matrix(-1 0 0 1 557 21)"/>
                    <path fill="#01003D" d="M157.057 434.561c83.054 4.471 70.983-43.901 70.983-43.901h26.986s2.547 67.82-98.767 66.49c-6.17-.081-11.123-5.14-11.123-11.31 0-6.478 5.45-11.628 11.921-11.279" transform="matrix(-1 0 0 1 557 21)"/>
                    <path fill="#4EBBFF" d="M331.694 332.422c1.991-5.392 3.448-10.922 4.354-16.59 4.967-31.086-7.506-61.127-21.413-83.586L217.68 332.422h114.014z" transform="matrix(-1 0 0 1 557 21)"/>
                    <path fill="#FFFEFD" d="M314.636 232.327c-5.81-9.413-11.867-17.5-17.01-23.778l-44.197 47.783-70.769 76.515h35.019l96.957-100.52z" transform="matrix(-1 0 0 1 557 21)"/>
                    <path fill="#E5EBED" d="M295.611 206.137h-.047.047z" transform="matrix(-1 0 0 1 557 21)"/>
                    <path fill="#E3E1E1" d="M295.564 206.137h-11.358 11.358z" transform="matrix(-1 0 0 1 557 21)"/>
                    <path fill="#FFFEFD" d="M113.175 180.656L112.045 206.138 235.199 275.997 253.43 256.169z" transform="matrix(-1 0 0 1 557 21)"/>
                    <path fill="#0084D2" d="M295.613 206.137l-5.702-6.136-46.963 50.523-74.05 82.324h13.37l52.931-56.852 18.23-19.828 44.195-47.62c-.69-.838-1.36-1.64-2.01-2.41" transform="matrix(-1 0 0 1 557 21)"/>
                    <path fill="#0084D2" d="M113.175 180.656L113.624 170.519 249.252 243.742 242.949 250.525z" transform="matrix(-1 0 0 1 557 21)"/>
                    <path fill="#DCDDDB" d="M101.786 134.65c-1.856 29.647 18.844 52.17 45.72 61.565 14.804 5.176 30.688 5.449 45.447 11.086 17.137 6.545 31.022 17.96 40.884 33.395 2.502 3.916 8.773.288 6.253-3.654-16.345-25.58-42.155-38.796-71.61-43.464-30.962-4.91-61.658-23.706-59.453-58.928.292-4.652-6.951-4.635-7.241 0" transform="matrix(-1 0 0 1 557 21)"/>
                    <path fill="#DCDDDB" d="M286.097 129.554c-16.518 15.084-9.691 37.029-11.308 56.589-1.948 23.557-21.506 37.532-39.65 49.6-3.862 2.57-.242 8.843 3.652 6.252 15.192-10.104 31.733-21.437 39.264-38.757 9.27-21.329-5.48-51.542 13.161-68.565 3.449-3.15-1.683-8.258-5.12-5.119" transform="matrix(-1 0 0 1 557 21)"/>
                    <path fill="#DCDDDB" d="M217.992 313.458c-1.69-12.46 1.838-27.308 5.522-39.094 2.01-6.428 4.72-14.454 10.22-18.811 6.782-5.37 12.231.77 18.984 2.806 14.94 4.501 51.577-6.37 40.862-27.993-10.128-20.436-43.657.154-57.579 5.013-4.371 1.526-2.49 8.524 1.927 6.981 10.954-3.823 21.468-9.007 32.723-11.95 7.248-1.895 24.988-.875 14.962 12.69-4.321 5.848-15.04 8.9-21.975 9.278-13.06.713-23.502-12.693-35.47-1.532-8.769 8.179-12.247 21.836-14.564 33.135-2.058 10.038-3.984 21.145-2.594 31.401.623 4.598 7.602 2.64 6.982-1.924" transform="matrix(-1 0 0 1 557 21)"/>
                    <path fill="#767688" d="M235.542 89.431c1.992-43.807-9.638-84.098-9.638-84.098l-.39-.003-73.842.003s-11.63 40.29-9.638 84.098h93.508z" transform="matrix(-1 0 0 1 557 21)"/>
                    <path fill="#A36B21" d="M108.26 100.404c.196.07 11.383 4.593 26.394 4.602 7.506 0 15.978-1.14 24.46-4.607 1.386-.567 2.054-2.152 1.486-3.539-.567-1.39-2.153-2.055-3.541-1.486-7.687 3.142-15.448 4.203-22.405 4.203-6.955 0-13.094-1.063-17.47-2.127-2.19-.53-3.937-1.06-5.122-1.453-.596-.196-1.048-.359-1.35-.47l-.33-.124-.076-.03-.013-.005c-1.392-.56-2.974.11-3.534 1.503-.563 1.39.109 2.972 1.501 3.533" transform="matrix(-1 0 0 1 557 21)"/>
                    <path fill="#5D5D6E" d="M53.546 113.126c0 15.563 61.295 28.178 136.908 28.178 75.613 0 136.91-12.615 136.91-28.178l-.025-4.341H53.52l.027 4.34z" transform="matrix(-1 0 0 1 557 21)"/>
                    <path fill="#767688" d="M327.34 108.785c0 13.804-61.298 24.995-136.91 24.995-75.614 0-136.911-11.19-136.911-24.995 0-13.804 61.297-24.994 136.91-24.994s136.91 11.19 136.91 24.994" transform="matrix(-1 0 0 1 557 21)"/>
                    <path fill="#9494AC" d="M225.904 5.332c0 2.75-16.617 4.98-37.115 4.98s-37.117-2.23-37.117-4.98c0-2.751 16.619-4.98 37.117-4.98 20.498 0 37.115 2.229 37.115 4.98" transform="matrix(-1 0 0 1 557 21)"/>
                    <path fill="#01003D" d="M331.796 332.095H112.3l.422 77.798c40.775 6.493 74.74 6.774 102.963 3.172 31.235-3.986 60.931-16.503 84.552-37.324 15.107-13.315 25.65-27.889 31.56-43.646" transform="matrix(-1 0 0 1 557 21)"/>
                    <path fill="#646471" d="M197.377 10.216s7.073 64.661 2.02 78.805l81.001 38.56s46.056-5.852 46.941-18.796l-88.451-23.552s-.714-39.615-13.094-80.194c0 0 3.41 4.419-28.417 5.177" transform="matrix(-1 0 0 1 557 21)"/>
                    <path fill="#464652" d="M280.399 127.581v6.65s45.931-7.828 46.941-20.331v-5.115s2.864 11.136-46.941 18.796" transform="matrix(-1 0 0 1 557 21)"/>
                    <path fill="#FCDE5D" d="M109.093 98.03l24.495-52.35 24.314 52.35s-24.618 9.293-48.81 0" transform="matrix(-1 0 0 1 557 21)"/>
                    <path fill="#FFB700" d="M133.589 45.679l24.314 52.35s-9.894 4.158-18.65 4.132l-5.664-56.482z" transform="matrix(-1 0 0 1 557 21)"/>
                    <path fill="#FF8F83" d="M266.908 159.176s-6.633 5.343-27.178 2.186c0 0-8.798-2.525-9.052 4.294-.251 6.819 9.725 17.553 27.282 12.754 0 0 11.408-2.945 14.692-6.398l-5.744-12.836z" transform="matrix(-1 0 0 1 557 21)"/>
                    <path fill="#FFF" d="M239.73 161.362s3.45.631 6.715 1.093l-4.23 4.822-2.485-5.915z" transform="matrix(-1 0 0 1 557 21)"/>
                </g>
            </g>
        </g>
    </g>
</svg>
