<?xml version="1.0" encoding="UTF-8" standalone="no"?>
<!DOCTYPE svg PUBLIC "-//W3C//DTD SVG 1.1//EN" "http://www.w3.org/Graphics/SVG/1.1/DTD/svg11.dtd">
<svg version="1.1" xmlns="http://www.w3.org/2000/svg" xmlns:xlink="http://www.w3.org/1999/xlink" preserveAspectRatio="xMidYMid meet" viewBox="143.75482334666015 108.39965778933156 352.49035330667965 423.2006844213369" width="352.49" height="423.2"><defs><path d="M391.34 331.53L383.62 327.36L414 294.56L287.22 294.56L287.22 387.88L339.22 387.88L391.34 331.53Z" id="c4aAzV2FM5"></path><path d="M423.75 296.19L423.88 296.34L379.29 346.64L287.22 294.56L290.16 228.4L393.91 229.66C393.91 230.97 393.91 231.7 393.91 231.84C393.91 234.92 394.28 237.98 395.02 240.96C400.11 261.38 409.96 280.3 423.75 296.19" id="d3vxYfgsk"></path><path d="M408.24 247.72C408.24 251.04 404.36 253.73 399.56 253.73C394.77 253.73 390.88 251.04 390.88 247.72C390.88 244.4 394.77 241.71 399.56 241.71C404.36 241.71 408.24 244.4 408.24 247.72" id="iAeN72ygV"></path><path d="M289.29 246.97L289.86 234.18L393.61 235.44C399.79 239.75 403.22 242.15 403.91 242.63C403.91 242.63 406.24 243.34 407.35 245.14C407.35 245.14 356.08 257.28 289.29 246.97" id="a77BjT9wG"></path><path d="M447.75 531.6L175.43 531.6L175.43 513.74L447.75 513.74L447.75 531.6Z" id="b8R0tWX1dx"></path><path d="M443.8 336.8C443.8 336.8 448.63 349.19 495.05 366.07C494.66 367.17 492.76 372.67 489.33 382.56L445.35 364.69C444.52 349.82 444 340.52 443.8 336.8Z" id="carjwsF4fv"></path><path d="M366.75 201.51L387.73 178.64C390.14 197.08 391.48 207.32 391.75 209.37C391.75 209.37 377.64 210.17 366.75 201.51" id="a1GNswm05W"></path><path d="M387.69 178.6C390.1 197.04 391.44 207.28 391.71 209.33C391.71 209.33 385.97 209.87 381.49 208.44C382.32 204.46 384.39 194.51 387.69 178.6Z" id="diNHo9X8n"></path><path d="M287.22 294.56C287.22 294.56 174.33 257.07 212.65 344.14C214.03 343.43 225.03 337.76 226.4 337.05C226.4 337.05 188.49 278.09 287.22 310.9C287.22 307.63 287.22 297.83 287.22 294.56Z" id="b9lNd1NyVn"></path><path d="M341.76 434.3C341.76 434.3 344.19 478.78 334.46 523.4C336.32 523.4 351.25 523.4 353.12 523.4C353.12 523.4 360.41 470.11 360.82 434.3C357.01 434.3 345.57 434.3 341.76 434.3Z" id="cPSbY33LC"></path><path d="M311.59 462.09C382.36 469.39 372.64 430.45 372.64 430.45C374.63 430.45 390.53 430.45 392.51 430.45C392.51 430.45 394.52 483.99 311.59 479.12C311.59 475.71 311.59 465.49 311.59 462.09Z" id="acBOiqJlV"></path><path d="M287.22 387.88L287.23 387.88L287.22 387.56L287.22 387.88Z" id="a1F0hA5GkQ"></path><path d="M448.97 387.56C450.44 383.59 451.51 379.52 452.18 375.35C455.83 352.45 446.65 330.33 436.41 313.79C431.65 318.71 407.85 343.3 365.01 387.56C409.79 387.56 437.78 387.56 448.97 387.56Z" id="bcMsAUK9Z"></path><path d="M436.41 313.85C432.13 306.92 427.67 300.96 423.88 296.34C421.71 298.68 410.86 310.41 391.34 331.53L339.22 387.88L365.01 387.88C403.09 348.4 426.89 323.72 436.41 313.85Z" id="a2oBWbXkoI"></path><path d="M414 294.56L422.4 294.56" id="d4gulKmiWk"></path><path d="M288.05 275.8L287.22 294.56L377.91 346.01L391.34 331.41L288.05 275.8Z" id="a23uPqzadU"></path><path d="M422.4 294.56L418.2 290.04L383.62 327.25L329.09 387.88L338.93 387.88L377.91 346.01L391.34 331.41C410.86 310.37 421.71 298.68 423.88 296.34C423.37 295.72 422.88 295.13 422.4 294.56" id="g6xDspcCu"></path><path d="M288.05 275.8L288.39 268.33L388.26 322.26L383.62 327.25L288.05 275.8Z" id="a2Wm7EcQnM"></path><path d="M172.7 154.88C173.88 152.71 167.73 144.28 166.56 142.94C165.92 142.2 165.23 141.5 164.54 140.81C163.31 139.58 160.43 136.11 159.54 129.95C159.21 127.7 156.31 126.96 154.93 128.76C154.55 129.25 152.63 131.98 152.24 132.51C153.54 138.36 161.97 152.4 172.7 154.88" id="c1mCeYFUyK"></path><path d="M154.53 133.01C154.17 131.93 152.75 131.71 152.11 132.65C145.95 141.65 139.36 155.21 147.66 163.84C152.5 168.88 160.2 169.72 166.38 166.45C170.45 164.3 174.16 160.71 173.21 154.88C172.53 150.73 169.67 147.19 165.79 145.56C159.25 142.81 156.07 137.61 154.53 133.01" id="e5K8XLOhw"></path><path d="M229.62 145.67C228.3 145 223.55 142.33 222.06 141.88C221.81 141.8 221.57 141.73 221.31 141.65C204.76 136.77 206.78 121.66 210.05 111.98C210.91 109.43 207.93 107.33 205.82 109C204.18 110.29 202.38 111.81 200.51 113.53C199.41 127.46 195.76 161.76 229.62 145.67" id="c1qvOTLq6c"></path><path d="M222.51 145.25C199.89 153.92 199.46 126.76 200.51 113.53C191.48 121.88 180.8 135.24 178.8 152.92C176.53 172.99 190.62 191.12 210.76 192.52C217.69 193 225.02 191.4 231.65 185.69C244.23 174.85 242.53 155.94 230.67 146.43C228.38 144.59 225.26 144.2 222.51 145.25" id="j1KNxWMaC"></path><path d="M495.59 258.23C494.88 255.85 492.96 249.74 491.72 247.26C491.07 245.96 489.12 246.18 488.79 247.59C487.55 252.89 483.73 261.51 472.61 266.75C467.79 269.02 466.73 271.94 465.18 274.04C485.36 277.07 492.62 266.79 495.59 258.23" id="c19j0fZcSO"></path><path d="M493.79 257.62C491.28 265.34 485.3 273.26 469.86 272.05C467.43 271.86 465.17 273.4 464.44 275.73C464.29 276.18 464.17 276.64 464.08 277.11C463.18 281.65 464.49 286.61 473.36 288.28C487.59 290.96 499.49 276.65 495.44 257.71C495.26 256.86 494.06 256.8 493.79 257.62" id="a6bZaEYfiM"></path><path d="M219.82 156.87C215.18 165.54 207.84 157.32 204.65 152.98C204.09 157.94 204.36 164.88 208.44 170.83C213.08 177.59 222.21 179.42 228.76 174.5C231.02 172.81 232.84 170.37 233.36 166.86C234.34 160.19 228.8 154.84 222.64 155.07C221.45 155.11 220.39 155.82 219.82 156.87" id="a4AfA4yrr"></path><path d="M485.15 273.56C482.84 276.44 478.78 278.87 471.23 275.89C470.04 275.43 468.7 275.72 468.02 276.6C467.89 276.76 467.76 276.94 467.65 277.13C466.59 278.92 466.57 281.24 470.77 283.36C477.53 286.77 485.42 282.57 485.96 273.86C485.99 273.47 485.39 273.25 485.15 273.56" id="g18BmP9os"></path><path d="M160.37 145.31C160.19 144.77 159.46 144.68 159.14 145.15C156.05 149.67 152.76 156.46 156.92 160.79C159.35 163.31 163.22 163.73 166.32 162.1C168.32 161.04 170.14 159.29 169.77 156.46C169.48 154.32 168.01 152.45 166.01 151.61C162.74 150.23 161.14 147.62 160.37 145.31" id="b3ioyQStI8"></path><path d="M279.67 241.91C278.3 263.75 293.54 280.34 313.34 287.25C324.24 291.07 335.94 291.27 346.8 295.42C359.42 300.24 369.65 308.65 376.91 320.01C378.75 322.9 383.37 320.22 381.51 317.32C369.48 298.48 350.47 288.75 328.78 285.31C305.98 281.7 283.38 267.85 285 241.91C285.22 238.49 279.88 238.5 279.67 241.91" id="d1GWnvylzD"></path><path d="M415.39 238.16C403.23 249.27 408.26 265.43 407.07 279.84C405.63 297.19 391.23 307.48 377.87 316.37C375.02 318.26 377.69 322.88 380.56 320.97C391.74 313.53 403.93 305.18 409.47 292.43C416.3 276.72 405.44 254.47 419.16 241.93C421.7 239.61 417.92 235.85 415.39 238.16" id="l4cDcHpHw1"></path><path d="M365.24 373.6C364 364.42 366.59 353.49 369.31 344.81C370.79 340.07 372.78 334.16 376.83 330.95C381.83 327 385.84 331.52 390.81 333.02C401.81 336.34 428.79 328.33 420.9 312.41C413.45 297.35 388.75 312.52 378.5 316.1C375.28 317.22 376.67 322.37 379.92 321.24C387.99 318.42 395.73 314.6 404.02 312.44C409.36 311.04 422.42 311.79 415.04 321.78C411.86 326.09 403.96 328.34 398.85 328.62C389.24 329.14 381.55 319.27 372.74 327.49C366.28 333.51 363.72 343.57 362.01 351.89C360.49 359.28 359.08 367.46 360.1 375.02C360.56 378.4 365.7 376.96 365.24 373.6" id="a9l9DqeED"></path><path d="M378.17 208.61C379.63 176.35 371.07 146.68 371.07 146.68C371.05 146.68 370.95 146.68 370.78 146.68C338.16 146.68 320.03 146.68 316.41 146.68C316.41 146.68 307.84 176.35 309.31 208.61C323.08 208.61 364.39 208.61 378.17 208.61Z" id="a2q0v94DO"></path><path d="M285.19 214.84C285.19 214.84 303.27 222.14 321.13 214.84" id="d2o4xXPN8U"></path><path d="M244.14 226.06C244.14 237.52 289.28 246.82 344.96 246.82C400.64 246.82 445.78 237.52 445.78 226.06C445.78 225.85 445.77 224.78 445.76 222.87L244.12 222.87C244.14 224.57 244.14 225.64 244.14 226.06Z" id="oAW3sC7vg"></path><path d="M445.76 222.87C445.76 233.03 400.63 241.27 344.94 241.27C289.26 241.27 244.13 233.03 244.13 222.87C244.13 212.7 289.26 204.46 344.94 204.46C400.63 204.46 445.76 212.7 445.76 222.87" id="eOLeycc0T"></path><path d="M371.07 146.68C371.07 148.7 358.83 150.35 343.74 150.35C328.64 150.35 316.4 148.7 316.4 146.68C316.4 144.65 328.64 143.01 343.74 143.01C358.83 143.01 371.07 144.65 371.07 146.68" id="dOVwa0wLW"></path><path d="M449.05 387.32L364.89 387.32L339.12 387.32L287.41 387.32C287.6 421.7 287.7 440.8 287.72 444.62C317.75 449.4 342.76 449.61 363.54 446.95C386.54 444.02 408.41 434.8 425.81 419.47C436.93 409.66 444.69 398.93 449.05 387.32" id="d8PKux8zY"></path><path d="M350.06 150.28C350.06 150.28 355.27 197.89 351.55 208.31C357.51 211.15 405.23 233.87 411.2 236.71C411.2 236.71 445.11 232.4 445.76 222.87C439.25 221.13 387.14 207.25 380.63 205.52C380.63 205.52 380.1 176.35 370.99 146.46C370.99 146.46 373.5 149.72 350.06 150.28" id="aGGHFpXc0"></path><path d="M411.2 236.71C411.2 239.65 411.2 241.28 411.2 241.61C411.2 241.61 445.02 235.84 445.76 226.63C445.76 226.26 445.76 223.24 445.76 222.87C445.76 222.87 447.87 231.07 411.2 236.71" id="g4iy6ORpFb"></path><path d="M285.05 214.95L303.09 176.39C313.83 199.52 319.8 212.38 320.99 214.95C320.99 214.95 302.86 221.79 285.05 214.95" id="brnrY14d"></path><path d="M303.09 176.39C313.83 199.52 319.8 212.37 320.99 214.94C320.99 214.94 313.71 218.01 307.26 217.99C306.7 212.44 305.31 198.58 303.09 176.39Z" id="aIqXsnVrZ"></path><path d="M401.26 259.98C401.26 259.98 396.38 263.91 381.25 261.59C381.25 261.59 374.77 259.73 374.58 264.75C374.4 269.77 381.74 277.68 394.67 274.14C394.67 274.14 403.07 271.97 405.49 269.43C404.65 267.54 402.11 261.87 401.26 259.98Z" id="a1subrZvxz"></path><path d="M381.25 261.59C381.25 261.59 383.79 262.05 386.19 262.39C385.99 262.63 384.95 263.81 383.08 265.94C382.1 263.62 381.49 262.17 381.25 261.59Z" id="e1KlqzGvuz"></path></defs><g><g><g><use xlink:href="#c4aAzV2FM5" opacity="1" fill="#9bb2b8" fill-opacity="1"></use><g><use xlink:href="#c4aAzV2FM5" opacity="1" fill-opacity="0" stroke="#000000" stroke-width="1" stroke-opacity="0"></use></g></g><g><use xlink:href="#d3vxYfgsk" opacity="1" fill="#fae8e3" fill-opacity="1"></use><g><use xlink:href="#d3vxYfgsk" opacity="1" fill-opacity="0" stroke="#000000" stroke-width="1" stroke-opacity="0"></use></g></g><g><use xlink:href="#iAeN72ygV" opacity="1" fill="#ffb700" fill-opacity="1"></use><g><use xlink:href="#iAeN72ygV" opacity="1" fill-opacity="0" stroke="#000000" stroke-width="1" stroke-opacity="0"></use></g></g><g><use xlink:href="#a77BjT9wG" opacity="1" fill="#cdc8c8" fill-opacity="1"></use><g><use xlink:href="#a77BjT9wG" opacity="1" fill-opacity="0" stroke="#000000" stroke-width="1" stroke-opacity="0"></use></g></g><g><use xlink:href="#b8R0tWX1dx" opacity="1" fill="#cdc8c8" fill-opacity="1"></use><g><use xlink:href="#b8R0tWX1dx" opacity="1" fill-opacity="0" stroke="#000000" stroke-width="1" stroke-opacity="0"></use></g></g><g><use xlink:href="#carjwsF4fv" opacity="1" fill="#9bb2b8" fill-opacity="1"></use><g><use xlink:href="#carjwsF4fv" opacity="1" fill-opacity="0" stroke="#000000" stroke-width="1" stroke-opacity="0"></use></g></g><g><use xlink:href="#a1GNswm05W" opacity="1" fill="#ffd700" fill-opacity="1"></use><g><use xlink:href="#a1GNswm05W" opacity="1" fill-opacity="0" stroke="#000000" stroke-width="1" stroke-opacity="0"></use></g></g><g><use xlink:href="#diNHo9X8n" opacity="1" fill="#ffb700" fill-opacity="1"></use><g><use xlink:href="#diNHo9X8n" opacity="1" fill-opacity="0" stroke="#000000" stroke-width="1" stroke-opacity="0"></use></g></g><g><use xlink:href="#b9lNd1NyVn" opacity="1" fill="#9bb2b8" fill-opacity="1"></use><g><use xlink:href="#b9lNd1NyVn" opacity="1" fill-opacity="0" stroke="#000000" stroke-width="1" stroke-opacity="0"></use></g></g><g><use xlink:href="#cPSbY33LC" opacity="1" fill="#747477" fill-opacity="1"></use><g><use xlink:href="#cPSbY33LC" opacity="1" fill-opacity="0" stroke="#000000" stroke-width="1" stroke-opacity="0"></use></g></g><g><use xlink:href="#acBOiqJlV" opacity="1" fill="#747477" fill-opacity="1"></use><g><use xlink:href="#acBOiqJlV" opacity="1" fill-opacity="0" stroke="#000000" stroke-width="1" stroke-opacity="0"></use></g></g><g><use xlink:href="#a1F0hA5GkQ" opacity="1" fill="#29a3ef" fill-opacity="1"></use><g><use xlink:href="#a1F0hA5GkQ" opacity="1" fill-opacity="0" stroke="#000000" stroke-width="1" stroke-opacity="0"></use></g></g><g><use xlink:href="#bcMsAUK9Z" opacity="1" fill="#9bb2b8" fill-opacity="1"></use><g><use xlink:href="#bcMsAUK9Z" opacity="1" fill-opacity="0" stroke="#000000" stroke-width="1" stroke-opacity="0"></use></g></g><g><use xlink:href="#a2oBWbXkoI" opacity="1" fill="#fffefd" fill-opacity="1"></use><g><use xlink:href="#a2oBWbXkoI" opacity="1" fill-opacity="0" stroke="#000000" stroke-width="1" stroke-opacity="0"></use></g></g><g><use xlink:href="#d4gulKmiWk" opacity="1" fill="#ccd7dc" fill-opacity="1"></use><g><use xlink:href="#d4gulKmiWk" opacity="1" fill-opacity="0" stroke="#000000" stroke-width="1" stroke-opacity="0"></use></g></g><g><use xlink:href="#a23uPqzadU" opacity="1" fill="#fffefd" fill-opacity="1"></use><g><use xlink:href="#a23uPqzadU" opacity="1" fill-opacity="0" stroke="#000000" stroke-width="1" stroke-opacity="0"></use></g></g><g><use xlink:href="#g6xDspcCu" opacity="1" fill="#647d88" fill-opacity="1"></use><g><use xlink:href="#g6xDspcCu" opacity="1" fill-opacity="0" stroke="#000000" stroke-width="1" stroke-opacity="0"></use></g></g><g><use xlink:href="#a2Wm7EcQnM" opacity="1" fill="#647d88" fill-opacity="1"></use><g><use xlink:href="#a2Wm7EcQnM" opacity="1" fill-opacity="0" stroke="#000000" stroke-width="1" stroke-opacity="0"></use></g></g><g><use xlink:href="#c1mCeYFUyK" opacity="1" fill="#aae49c" fill-opacity="1"></use><g><use xlink:href="#c1mCeYFUyK" opacity="1" fill-opacity="0" stroke="#000000" stroke-width="1" stroke-opacity="0"></use></g></g><g><use xlink:href="#e5K8XLOhw" opacity="1" fill="#5caf71" fill-opacity="1"></use><g><use xlink:href="#e5K8XLOhw" opacity="1" fill-opacity="0" stroke="#000000" stroke-width="1" stroke-opacity="0"></use></g></g><g><use xlink:href="#c1qvOTLq6c" opacity="1" fill="#b3dbf5" fill-opacity="1"></use><g><use xlink:href="#c1qvOTLq6c" opacity="1" fill-opacity="0" stroke="#000000" stroke-width="1" stroke-opacity="0"></use></g></g><g><use xlink:href="#j1KNxWMaC" opacity="1" fill="#29a3ef" fill-opacity="1"></use><g><use xlink:href="#j1KNxWMaC" opacity="1" fill-opacity="0" stroke="#000000" stroke-width="1" stroke-opacity="0"></use></g></g><g><use xlink:href="#c19j0fZcSO" opacity="1" fill="#ff9083" fill-opacity="1"></use><g><use xlink:href="#c19j0fZcSO" opacity="1" fill-opacity="0" stroke="#000000" stroke-width="1" stroke-opacity="0"></use></g></g><g><use xlink:href="#a6bZaEYfiM" opacity="1" fill="#fe3500" fill-opacity="1"></use><g><use xlink:href="#a6bZaEYfiM" opacity="1" fill-opacity="0" stroke="#000000" stroke-width="1" stroke-opacity="0"></use></g></g><g><use xlink:href="#a4AfA4yrr" opacity="1" fill="#0084d2" fill-opacity="1"></use><g><use xlink:href="#a4AfA4yrr" opacity="1" fill-opacity="0" stroke="#000000" stroke-width="1" stroke-opacity="0"></use></g></g><g><use xlink:href="#g18BmP9os" opacity="1" fill="#d22300" fill-opacity="1"></use><g><use xlink:href="#g18BmP9os" opacity="1" fill-opacity="0" stroke="#000000" stroke-width="1" stroke-opacity="0"></use></g></g><g><use xlink:href="#b3ioyQStI8" opacity="1" fill="#009636" fill-opacity="1"></use><g><use xlink:href="#b3ioyQStI8" opacity="1" fill-opacity="0" stroke="#000000" stroke-width="1" stroke-opacity="0"></use></g></g><g><use xlink:href="#d1GWnvylzD" opacity="1" fill="#d3e1e6" fill-opacity="1"></use><g><use xlink:href="#d1GWnvylzD" opacity="1" fill-opacity="0" stroke="#000000" stroke-width="1" stroke-opacity="0"></use></g></g><g><use xlink:href="#l4cDcHpHw1" opacity="1" fill="#d3e1e6" fill-opacity="1"></use><g><use xlink:href="#l4cDcHpHw1" opacity="1" fill-opacity="0" stroke="#000000" stroke-width="1" stroke-opacity="0"></use></g></g><g><use xlink:href="#a9l9DqeED" opacity="1" fill="#d3e1e6" fill-opacity="1"></use><g><use xlink:href="#a9l9DqeED" opacity="1" fill-opacity="0" stroke="#000000" stroke-width="1" stroke-opacity="0"></use></g></g><g><use xlink:href="#a2q0v94DO" opacity="1" fill="#e2b78b" fill-opacity="1"></use><g><use xlink:href="#a2q0v94DO" opacity="1" fill-opacity="0" stroke="#000000" stroke-width="1" stroke-opacity="0"></use></g></g><g><use xlink:href="#d2o4xXPN8U" opacity="1" fill="#000000" fill-opacity="0"></use><g><use xlink:href="#d2o4xXPN8U" opacity="1" fill-opacity="0" stroke="#a36b21" stroke-width="3" stroke-opacity="1"></use></g></g><g><use xlink:href="#oAW3sC7vg" opacity="1" fill="#cca47e" fill-opacity="1"></use><g><use xlink:href="#oAW3sC7vg" opacity="1" fill-opacity="0" stroke="#000000" stroke-width="1" stroke-opacity="0"></use></g></g><g><use xlink:href="#eOLeycc0T" opacity="1" fill="#e2b78b" fill-opacity="1"></use><g><use xlink:href="#eOLeycc0T" opacity="1" fill-opacity="0" stroke="#000000" stroke-width="1" stroke-opacity="0"></use></g></g><g><use xlink:href="#dOVwa0wLW" opacity="1" fill="#e2b78b" fill-opacity="1"></use><g><use xlink:href="#dOVwa0wLW" opacity="1" fill-opacity="0" stroke="#000000" stroke-width="1" stroke-opacity="0"></use></g></g><g><use xlink:href="#d8PKux8zY" opacity="1" fill="#747477" fill-opacity="1"></use><g><use xlink:href="#d8PKux8zY" opacity="1" fill-opacity="0" stroke="#000000" stroke-width="1" stroke-opacity="0"></use></g></g><g><use xlink:href="#aGGHFpXc0" opacity="1" fill="#cca47e" fill-opacity="1"></use><g><use xlink:href="#aGGHFpXc0" opacity="1" fill-opacity="0" stroke="#000000" stroke-width="1" stroke-opacity="0"></use></g></g><g><use xlink:href="#g4iy6ORpFb" opacity="1" fill="#ae8a6d" fill-opacity="1"></use><g><use xlink:href="#g4iy6ORpFb" opacity="1" fill-opacity="0" stroke="#000000" stroke-width="1" stroke-opacity="0"></use></g></g><g><use xlink:href="#brnrY14d" opacity="1" fill="#ffd700" fill-opacity="1"></use><g><use xlink:href="#brnrY14d" opacity="1" fill-opacity="0" stroke="#000000" stroke-width="1" stroke-opacity="0"></use></g></g><g><use xlink:href="#aIqXsnVrZ" opacity="1" fill="#ffb700" fill-opacity="1"></use><g><use xlink:href="#aIqXsnVrZ" opacity="1" fill-opacity="0" stroke="#000000" stroke-width="1" stroke-opacity="0"></use></g></g><g><use xlink:href="#a1subrZvxz" opacity="1" fill="#ff9083" fill-opacity="1"></use><g><use xlink:href="#a1subrZvxz" opacity="1" fill-opacity="0" stroke="#000000" stroke-width="1" stroke-opacity="0"></use></g></g><g><use xlink:href="#e1KlqzGvuz" opacity="1" fill="#ffffff" fill-opacity="1"></use><g><use xlink:href="#e1KlqzGvuz" opacity="1" fill-opacity="0" stroke="#000000" stroke-width="1" stroke-opacity="0"></use></g></g></g></g></svg>