<svg class="icon svg-icon svg-icon-checklist" viewBox="0 0 32 32"><g fill-rule="evenodd"><path d="M11.004 11a.004.004 0 0 1-.004.004h10a.004.004 0 0 1-.004-.004v10c0-.002.002-.004.004-.004H11c.002 0 .004.002.004.004V11zM9 21.605c0 .77.625 1.395 1.395 1.395h11.21c.77 0 1.395-.625 1.395-1.395v-11.21C23 9.625 22.375 9 21.605 9h-11.21C9.625 9 9 9.625 9 10.395v11.21z"></path><path d="M14.765 18.654c.282.21.68.168.91-.1l4.015-4.684-1.018-.87-3.603 4.208-2.177-1.632-.803 1.07 2.676 2.008z"></path></g></svg>