<svg class="icon svg-icon svg-icon-comment" viewBox="0 0 32 32"><path d="M12 18h5v-2h-5v2zm0-4h8v-2h-8v2zm10.435-6H9.565C8.7 8 8 8.7 8 9.565v10.87C8 21.3 8.7 22 9.565 22H12l3.886 2.903a.175.175 0 0 0 .114.042.17.17 0 0 0 .113-.043L20 22h2.435C23.3 22 24 21.3 24 20.435V9.565C24 8.7 23.3 8 22.435 8zM20 20c-.43 0-.85.14-1.197.397L16 22.49l-2.803-2.09c-.347-.26-.767-.4-1.197-.4h-1c-.552 0-1-.456-1-.995v-8.01c0-.55.456-.995 1.002-.995h9.996c.552 0 1.002.456 1.002.995v8.01c0 .55-.444.995-1 .995h-1z" fill-rule="evenodd"></path></svg>