<svg width="46" height="46" xmlns="http://www.w3.org/2000/svg" xmlns:xlink="http://www.w3.org/1999/xlink">
 <defs>
  <path d="m0,0l15.823,0l0,1l-15.823,0l0,-1z" id="prefix__a"/>
  <path d="m0.412,0.054l1,0l0,14.842l-1,0l0,-14.842z" id="prefix__c"/>
 </defs>
 <g>
  <title>background</title>
  <rect fill="none" id="canvas_background" height="602" width="802" y="-1" x="-1"/>
 </g>
 <g>
  <title>Layer 1</title>
  <g id="svg_1" fill-rule="evenodd" fill="none">
   <rect id="svg_2" x="2" y="2" rx="21" stroke-width="1.2" stroke="#E4E4E4" fill="#FFF" height="42" width="42"/>
   <g id="svg_3">
    <g id="svg_4" transform="translate(0,17.941999435424805) ">
     <mask transform="translate(13,10) translate(2,2) " id="prefix__b">
      <use id="svg_5" xlink:href="#prefix__a"/>
     </mask>
     <path id="svg_6" mask="url(#prefix__b)" d="m15,12.5l15.823,0" stroke="#1F1F1F"/>
    </g>
    <path id="svg_7" d="m29.822,20.921l-6.91,6.911l-6.91,-6.911" stroke="#1F1F1F"/>
    <g id="svg_8" transform="translate(7,0.9419999718666077) ">
     <mask transform="translate(13,10) translate(2,2) " id="prefix__d">
      <use id="svg_9" xlink:href="#prefix__c"/>
     </mask>
     <path id="svg_10" mask="url(#prefix__d)" d="m15.912,26.896l0,-14.842" stroke="#1F1F1F"/>
    </g>
   </g>
  </g>
  <line stroke="#1F1F1F" stroke-linecap="undefined" stroke-linejoin="undefined" id="svg_12" y2="12" x2="22.90991" y1="27.17411" x1="22.90991" fill="white"/>
  <line stroke="#1F1F1F" stroke-linecap="undefined" stroke-linejoin="undefined" id="svg_15" y2="30.07207" x2="30.09009" y1="30.07207" x1="15.70268" fill-opacity="null" stroke-opacity="null" fill="none"/>
 </g>
</svg>