<svg xmlns="http://www.w3.org/2000/svg" width="46" height="46" viewBox="0 0 46 46">
    <g fill="none" fill-rule="evenodd" transform="translate(2 2)">
        <rect width="42" height="42" fill="#FFF" stroke="#E4E4E4" stroke-width="1.2" rx="21"/>
        <g stroke="#1F1F1F">
            <path d="M4.88 2.69c0 1.21-.98 2.19-2.19 2.19S.5 3.9.5 2.69 1.48.5 2.69.5s2.19.98 2.19 2.19zM13.767 2.69c0 1.21-.98 2.19-2.19 2.19s-2.19-.98-2.19-2.19.98-2.19 2.19-2.19 2.19.98 2.19 2.19zM22.653 2.69c0 1.21-.98 2.19-2.19 2.19s-2.191-.98-2.191-2.19.98-2.19 2.19-2.19 2.19.98 2.19 2.19z" transform="translate(10 19)"/>
        </g>
    </g>
</svg>
