<svg xmlns="http://www.w3.org/2000/svg" xmlns:xlink="http://www.w3.org/1999/xlink" width="34" height="34" viewBox="0 0 34 34">
    <defs>
        <path id="prefix__a" d="M0 0L20.166 0 20.166 20.578 0 20.578z"/>
    </defs>
    <g fill="none" fill-rule="evenodd" transform="translate(7 6)">
        <mask id="prefix__b" fill="#fff">
            <use xlink:href="#prefix__a"/>
        </mask>
        <path fill="#FFF" d="M19.949 8.414h-9.66v3.818h5.67c-.114.949-.732 2.378-2.103 3.338-.87.606-2.035 1.03-3.567 1.03-2.721 0-5.03-1.796-5.853-4.276-.218-.64-.343-1.326-.343-2.035 0-.709.125-1.395.331-2.035.835-2.48 3.144-4.276 5.865-4.276 1.932 0 3.235.835 3.978 1.532l2.904-2.835C15.387 1.017 13.067 0 10.289 0c-4.024 0-7.5 2.31-9.192 5.67C.4 7.065 0 8.631 0 10.29c0 1.657.4 3.224 1.097 4.618 1.693 3.361 5.168 5.67 9.192 5.67 2.778 0 5.11-.914 6.813-2.491 1.944-1.795 3.064-4.436 3.064-7.569 0-.846-.069-1.463-.217-2.103" mask="url(#prefix__b)"/>
    </g>
</svg>
