<svg class="icon svg-icon svg-icon-h2" viewBox="0 0 32 32"><path d="M23.48 20h-5.183v-1.27l1.743-1.762c.5-.52.825-.877.978-1.067.153-.19.26-.35.32-.49s.09-.28.09-.43c0-.18-.06-.33-.18-.44-.12-.1-.29-.16-.51-.16-.223 0-.45.07-.68.2-.23.128-.49.318-.78.57L18.22 13.9c.368-.327.677-.563.927-.704.25-.142.524-.25.818-.325a4.3 4.3 0 0 1 .994-.11c.46 0 .87.08 1.23.25.363.163.644.395.845.696.2.3.3.64.3 1.013 0 .28-.035.54-.105.775a2.72 2.72 0 0 1-.324.7c-.144.23-.34.47-.58.726-.245.254-.76.736-1.553 1.445v.048h2.7V20h.008zM11 20H9v-8h2v3h3v-3h2v8h-2v-3h-3z" fill-rule="evenodd"></path></svg>