<svg height="458pt" viewBox="-2 0 458 458.62717" width="458pt" xmlns="http://www.w3.org/2000/svg"><path d="m410.980469 458.628906h-394.667969c-8.832031 0-16-7.167968-16-16 0-8.832031 7.167969-16 16-16h394.667969c8.832031 0 16 7.167969 16 16 0 8.832032-7.167969 16-16 16zm0 0"/><path d="m242.191406 363.183594c-4.222656 0-8.320312-1.6875-11.308594-4.695313l-135.765624-135.765625c-3.113282-3.113281-4.839844-7.421875-4.691407-11.839844.171875-4.4375 2.132813-8.597656 5.460938-11.519531l211.308593-184.894531c23.167969-20.269531 58.324219-19.117188 80.125 2.664062l49.152344 49.132813c21.78125 21.757813 22.933594 56.9375 2.667969 80.105469l-184.894531 211.328125c-2.925782 3.328125-7.085938 5.3125-11.5 5.460937-.214844.023438-.382813.023438-.554688.023438zm-112.363281-150.976563 111.574219 111.570313 173.632812-198.441406c9.214844-10.539063 8.679688-26.539063-1.21875-36.4375l-49.128906-49.128907c-9.878906-9.898437-25.878906-10.433593-36.417969-1.21875zm0 0"/><path d="m174.308594 385.816406c-4.140625 0-8.257813-1.621094-11.308594-4.691406l-90.515625-90.519531c-4.886719-4.863281-6.082031-12.308594-3.007813-18.472657l30.164063-60.355468c3.96875-7.890625 13.570313-11.070313 21.460937-7.144532 7.917969 3.945313 11.117188 13.566407 7.167969 21.460938l-25.023437 50.027344 74.21875 74.195312 50.027344-25c7.914062-3.949218 17.492187-.746094 21.460937 7.144532 3.96875 7.914062.746094 17.515624-7.167969 21.460937l-60.332031 30.167969c-2.257813 1.171875-4.691406 1.726562-7.144531 1.726562zm0 0"/><path d="m120.421875 394.628906h-90.667969c-6.464844 0-12.289062-3.90625-14.761718-9.859375-2.476563-5.972656-1.132813-12.863281 3.433593-17.425781l76.585938-76.800781c6.230469-6.230469 16.363281-6.273438 22.636719-.023438 6.269531 6.25 6.269531 16.386719.042968 22.636719l-49.386718 49.472656h45.503906l26.664062-26.667968c6.25-6.25 16.386719-6.25 22.636719 0 6.25 6.230468 6.25 16.382812 0 22.632812l-31.359375 31.363281c-3.007812 2.984375-7.085938 4.671875-11.328125 4.671875zm0 0"/></svg>