<svg class="icon svg-icon svg-icon-insert-image" viewBox="0 0 32 32"><g transform="translate(4 6)" fill-rule="evenodd"><path d="M8.353 10.434l4.311 3.818c.378.332.947.332 1.326 0l1.85-1.653 5.477 5.133a1.002 1.002 0 0 0 1.367-1.462l-6.137-5.75a1.002 1.002 0 0 0-1.347-.02l-1.854 1.683-4.44-3.932a1.001 1.001 0 0 0-1.41.083l-6.242 7a1 1 0 0 0 1.492 1.332l5.607-6.232z"></path><rect x="15" y="5" width="3" height="3" rx="1.5"></rect><path d="M2 3v14c0 .555.444 1 .992 1h18.016c.537 0 .992-.448.992-1V3c0-.555-.444-1-.992-1H2.992C2.455 2 2 2.448 2 3zM0 3c0-1.65 1.346-3 2.992-3h18.016A2.994 2.994 0 0 1 24 3v14c0 1.652-1.346 3-2.992 3H2.992A2.994 2.994 0 0 1 0 17V3z"></path></g></svg>