<svg xmlns="http://www.w3.org/2000/svg" xmlns:xlink="http://www.w3.org/1999/xlink" width="68" height="68" viewBox="0 0 68 68">
    <defs>
        <filter id="prefix__a" width="161.4%" height="161.4%" x="-23.9%" y="-23.9%" filterUnits="objectBoundingBox">
            <feMorphology in="SourceAlpha" operator="dilate" radius="1" result="shadowSpreadOuter1"/>
            <feOffset dx="3" dy="3" in="shadowSpreadOuter1" result="shadowOffsetOuter1"/>
            <feGaussianBlur in="shadowOffsetOuter1" result="shadowBlurOuter1" stdDeviation="3"/>
            <feColorMatrix in="shadowBlurOuter1" values="0 0 0 0 0.0243605516 0 0 0 0 0.0457802123 0 0 0 0 0.12610394 0 0 0 0.1 0"/>
        </filter>
        <rect id="prefix__b" width="44" height="44" x="0" y="0" rx="22"/>
    </defs>
    <g fill="none" fill-rule="evenodd" transform="translate(13 13)">
        <use fill="#000" filter="url(#prefix__a)" xlink:href="#prefix__b"/>
        <use fill="#FFF" xlink:href="#prefix__b"/>
        <path fill="#FF7664" d="M26.582 28.865c2.26-1.86 4.268-4.08 5.631-6.663l.06-.115.108-.212c.396-.826.619-1.759.619-2.747C33 15.743 30.38 13 27.15 13c-2.186 0-4.095 1.258-5.1 3.118-.017.032-.027.057-.051.057-.028 0-.033-.023-.05-.054C20.945 14.258 19.038 13 16.85 13 13.62 13 11 15.743 11 19.128c0 .869.173 1.696.485 2.445l.01.057s2.307 5.611 10.3 10.272L22 32l.19-.098c1.5-.874 2.995-1.886 4.392-3.037z"/>
    </g>
</svg>
