<svg class="icon svg-icon svg-icon-link" viewBox="0 0 32 32"><g fill-rule="evenodd"><path d="M21.45 16.5l1.417-1.417a4.002 4.002 0 0 0-.003-5.654c-1.56-1.56-4.094-1.57-5.654-.01l-3.54 3.541a3 3 0 0 0 .003 4.242l.706.706L15.79 16.5a1.994 1.994 0 0 1 0-2.827l2.83-2.83a1.993 1.993 0 0 1 2.827 0c.78.78.786 2.04 0 2.827l-1.415 1.416L21.45 16.5z"></path><path d="M10.843 15.793L9.426 17.21a4.002 4.002 0 0 0 .003 5.654 3.996 3.996 0 0 0 5.65.003l3.54-3.54a2.997 2.997 0 0 0-.006-4.242l-.703-.705-1.41 1.41c.78.78.787 2.04 0 2.827l-2.83 2.83c-.78.78-2.04.785-2.827 0a1.995 1.995 0 0 1 0-2.828l1.414-1.419-1.414-1.41v.003z"></path></g></svg>