<svg xmlns="http://www.w3.org/2000/svg" xmlns:xlink="http://www.w3.org/1999/xlink" width="30" height="30" viewBox="0 0 30 30">
    <defs>
        <path id="prefix__a" d="M0 0.408L15.088 0.408 15.088 12.6 0 12.6z"/>
        <path id="prefix__c" d="M0 0.546L16.853 0.546 16.853 20 0 20z"/>
    </defs>
    <g fill="none" fill-rule="evenodd">
        <g>
            <g transform="translate(2 3) translate(11 10) translate(0 .096)">
                <mask id="prefix__b" fill="#fff">
                    <use xlink:href="#prefix__a"/>
                </mask>
                <path fill="#51A2E9" d="M12.981 5.208h1.245c.629 0 1.045.652.782 1.223l-2.2 4.753-.07.153c-.357.77-1.129 1.263-1.977 1.263H1.496C.67 12.6 0 11.93 0 11.102V1.622C0 .952.543.408 1.214.408H3.14c.307 0 .604.11.837.312l1.275 1.102c.25.216.57.335.9.335h4.787c.67 0 1.214.544 1.214 1.214v1.837h.828z" mask="url(#prefix__b)"/>
            </g>
            <path fill="#80C4FF" d="M1.069 12.695h9.615c.895 0 1.71-.52 2.085-1.332l2.239-4.836c.264-.57-.153-1.223-.782-1.223H4.293c-.532 0-1.015.31-1.238.792l-2.606 5.63c-.21.452.121.97.62.97" transform="translate(2 3) translate(11 10)"/>
        </g>
        <g transform="translate(2 3) translate(0 .255)">
            <mask id="prefix__d" fill="#fff">
                <use xlink:href="#prefix__c"/>
            </mask>
            <path fill="#FFB700" d="M11.087 1.154l5.617 7.068c.355.446.037 1.106-.534 1.106h-3.032c.024.276.039.553.039.836 0 5.432-4.405 9.836-9.838 9.836-1.1 0-2.156-.181-3.144-.515-.254-.085-.263-.445-.01-.535 3.966-1.402 6.809-5.18 6.82-9.622H3.48c-.571 0-.889-.66-.534-1.106l5.617-7.068c.645-.812 1.878-.812 2.523 0" mask="url(#prefix__d)"/>
        </g>
        <path fill="#EA9C00" d="M12.541 9.58c.023.276.039.554.039.835 0 5.343-4.261 9.681-9.57 9.824.111.003.22.014.33.014 5.433 0 9.836-4.405 9.836-9.838 0-.281-.015-.559-.037-.835h-.598zM16.704 8.474l-5.617-7.068c-.392-.492-.999-.681-1.56-.576.363.068.71.258.963.576l3.421 7.068c.356.447.038 1.106-.533 1.106h2.792c.57 0 .888-.659.534-1.106" transform="translate(2 3)"/>
    </g>
</svg>
