<svg xmlns="http://www.w3.org/2000/svg" xmlns:xlink="http://www.w3.org/1999/xlink" width="30" height="30" viewBox="0 0 30 30">
    <defs>
        <path id="prefix__a" d="M0 0L12.703 0 12.703 13.968 0 13.968z"/>
        <path id="prefix__c" d="M0 0.546L16.853 0.546 16.853 20 0 20z"/>
    </defs>
    <g fill="none" fill-rule="evenodd">
        <g transform="translate(2 3) translate(12 8)">
            <mask id="prefix__b" fill="#fff">
                <use xlink:href="#prefix__a"/>
            </mask>
            <path fill="#5CAF71" d="M9.886 5.95H2.818c-.147 0-.265-.118-.265-.264 0-.146.118-.265.265-.265h7.068c.146 0 .264.119.264.265 0 .146-.118.264-.264.264m0 3.275H2.818c-.147 0-.265-.118-.265-.264 0-.146.118-.264.265-.264h7.068c.146 0 .264.118.264.264 0 .146-.118.264-.264.264M10.703 0H2C.895 0 0 .895 0 2v9.967c0 1.105.895 2 2 2h8.703c1.105 0 2-.895 2-2V2c0-1.105-.895-2-2-2" mask="url(#prefix__b)"/>
        </g>
        <g transform="translate(2 3) translate(0 .255)">
            <mask id="prefix__d" fill="#fff">
                <use xlink:href="#prefix__c"/>
            </mask>
            <path fill="#FFB700" d="M11.087 1.154l5.617 7.068c.355.446.037 1.106-.534 1.106h-3.032c.024.276.039.553.039.836 0 5.432-4.405 9.836-9.838 9.836-1.1 0-2.156-.181-3.144-.515-.254-.085-.263-.445-.01-.535 3.966-1.402 6.809-5.18 6.82-9.622H3.48c-.571 0-.889-.66-.534-1.106l5.617-7.068c.645-.812 1.878-.812 2.523 0" mask="url(#prefix__d)"/>
        </g>
        <path fill="#EA9C00" d="M12.541 9.58c.023.276.039.554.039.835 0 5.343-4.261 9.681-9.57 9.824.111.003.22.014.33.014 5.433 0 9.836-4.405 9.836-9.838 0-.281-.015-.559-.037-.835h-.598zM16.704 8.474l-5.617-7.068c-.392-.492-.999-.681-1.56-.576.363.068.71.258.963.576l3.421 7.068c.356.447.038 1.106-.533 1.106h2.792c.57 0 .888-.659.534-1.106" transform="translate(2 3)"/>
    </g>
</svg>
