<svg xmlns="http://www.w3.org/2000/svg" xmlns:xlink="http://www.w3.org/1999/xlink" width="147" height="38" viewBox="0 0 147 38">
    <defs>
        <path id="prefix__a" d="M0 0.25L24.281 0.25 24.281 24.393 0 24.393z"/>
        <path id="prefix__c" d="M0.153 0.23L20.674 0.23 20.674 26.029 0.153 26.029z"/>
        <path id="prefix__e" d="M0.02 0.166L7.312 0.166 7.312 9.498 0.02 9.498z"/>
    </defs>
    <g fill="none" fill-rule="evenodd">
        <path fill="gold" d="M39.613 10.763l3.892-3.122-.111 4.982s-2.261-.218-3.78-1.86"/>
        <path fill="#FFB700" d="M43.505 7.641l-.111 4.982s-.925-.056-1.602-.391l1.713-4.59z"/>
        <path fill="gold" d="M34.226 10.763L30.334 7.64l.112 4.982s2.26-.218 3.78-1.86"/>
        <path fill="#FFB700" d="M30.334 7.641l.112 4.982s.925-.056 1.602-.391l-1.714-4.59z"/>
        <g transform="translate(0 4.852)">
            <mask id="prefix__b" fill="#fff">
                <use xlink:href="#prefix__a"/>
            </mask>
            <path fill="#29A3EF" d="M10.692 19.806c4.794 0 7.933-2.863 7.933-7.485s-3.139-7.484-7.933-7.484c-2.82 0-5.104 2.285-5.104 5.104v4.76c0 2.82 2.285 5.105 5.104 5.105M0 5.354C0 2.534 2.285.25 5.105.25h5.863c7.898 0 13.313 4.759 13.313 12.07 0 7.313-5.415 12.073-13.313 12.073H5.105C2.285 24.393 0 22.107 0 19.288V5.354" mask="url(#prefix__b)"/>
        </g>
        <path fill="#29A3EF" d="M41.662 19.966c0-3.207-2.035-5.139-4.725-5.139-2.69 0-4.76 1.932-4.76 5.14 0 3.207 2.07 5.138 4.76 5.138s4.725-1.93 4.725-5.139m-14.934 0c0-5.587 4.311-9.553 10.209-9.553s10.175 3.966 10.175 9.553c0 5.588-4.277 9.554-10.175 9.554-5.898 0-10.21-3.966-10.21-9.554M49.317 19.966c0-5.587 4.312-9.553 10.347-9.553 2.536 0 4.72.715 6.308 2.05 1.305 1.097 1.102 3.16-.4 3.966-.927.499-2.05.313-2.821-.404-.88-.818-1.951-1.198-3.121-1.198-2.725 0-4.863 1.897-4.863 5.14 0 3.241 2.138 5.138 4.863 5.138 1.17 0 2.242-.363 3.123-1.184.773-.72 1.9-.904 2.828-.398 1.488.812 1.683 2.867.38 3.95-1.587 1.321-3.768 2.047-6.297 2.047-6.035 0-10.347-3.966-10.347-9.554"/>
        <g transform="translate(69.306 10.183)">
            <mask id="prefix__d" fill="#fff">
                <use xlink:href="#prefix__c"/>
            </mask>
            <path fill="#5CAF71" d="M9.43.23C4.293.23.154 3.782.154 9.197c0 5.415 4.139 8.968 9.278 8.968 2.414 0 4.449-.759 5.863-2.311v.793c0 3.346-1.655 5.07-5.45 5.07-1.635 0-3.37-.39-4.81-1.05-.303-.139-.622-.206-.937-.206-.762 0-1.492.393-1.884 1.101l-.045.082c-.608 1.096-.167 2.495.975 3.011 2.019.911 4.54 1.374 7.116 1.374 6.691 0 10.415-3.173 10.415-10.072V2.984c0 1.42-1.15 2.572-2.571 2.572h.156v10.16c0 .01-.004 1.2-.423 2.693-.419 1.492-1.253 3.294-2.929 4.503-1.117.805-2.604 1.339-4.563 1.338-1.223 0-2.63-.206-4.25-.68l.088-.302c1.597.468 2.974.669 4.162.669 1.784 0 3.138-.452 4.176-1.14 1.038-.686 1.762-1.613 2.268-2.573 1.012-1.92 1.141-3.972 1.156-4.42l.002-.088V5.556h.157c-1.421 0-2.572-1.152-2.572-2.572 0-.048 0-.096.003-.143C14.12 1.077 11.996.23 9.431.23M10.5 13.75c-2.828 0-4.898-1.828-4.898-4.553 0-2.725 2.07-4.552 4.898-4.552s4.863 1.827 4.863 4.552c0 2.725-2.035 4.553-4.863 4.553M19.647.926c.624.47 1.027 1.217 1.027 2.058v-.098c0-.813-.406-1.53-1.027-1.96" mask="url(#prefix__d)"/>
        </g>
        <path fill="#5CAF71" d="M102.464 10.413c-2.073 0-4.162.387-5.927 1.114.218-.076.454-.118.698-.118.95 0 1.752.628 2.015 1.49.041-.01 1.267-.324 2.89-.324.47 0 .973.026 1.491.094 3.131.412 5.445 3.126 5.445 6.28v5.285h-.313V18.95c0-3-2.202-5.58-5.173-5.969-.502-.066-.992-.092-1.45-.092-1.405 0-2.511.243-2.76.302l-.053.013-.03-.117c.028.138.043.281.043.427 0 .804-.45 1.501-1.11 1.856 1.08-.435 2.307-.68 3.51-.68 1.514 0 2.613.368 3.318 1.048.98.947.3 2.608-1.062 2.608h-2.257c-5.656 0-7.967 2.277-7.967 5.553 0 3.208 2.587 5.623 6.933 5.623 2.725 0 4.656-.897 5.656-2.587 0 1.047.697 1.931 1.652 2.215-.955-.365-1.634-1.29-1.634-2.374 0-1.403 1.137-2.54 2.54-2.54 1.21 0 2.222.845 2.478 1.976v-7.555c0-5.622-3.276-8.243-8.933-8.243m-.414 15.486c-1.897 0-3.035-.897-3.035-2.242 0-1.242.793-2.173 3.311-2.173h1.793c1.048 0 1.897.85 1.897 1.897-.62 1.69-2.173 2.518-3.966 2.518m-5.802-14.245c-.688.347-1.097 1.037-1.116 1.763.034-.765.478-1.423 1.116-1.763m14.63 16.738c-.075.092-.156.177-.244.257.088-.079.17-.165.244-.257"/>
        <path fill="#FF8F83" d="M131.02 19.966c0-3.207-2.035-5.139-4.725-5.139-2.69 0-4.725 1.932-4.725 5.14 0 3.207 2.035 5.138 4.725 5.138 2.69 0 4.725-1.93 4.725-5.139m5.45 0c0 5.83-4.036 9.554-9.244 9.554-2.483 0-4.483-.793-5.829-2.414 0 1.181-.957 2.138-2.138 2.138h-.862c-1.182 0-2.139-.957-2.139-2.138V6.343c0-1.486 1.205-2.69 2.69-2.69 1.487 0 2.69 1.204 2.69 2.69v2.905c0 1.264 1.27 2.182 2.445 1.716.936-.37 1.988-.551 3.143-.551 5.208 0 9.244 3.725 9.244 9.553M142.745 10.688c1.486 0 2.69 1.205 2.69 2.69v13.176c0 1.486-1.204 2.69-2.69 2.69s-2.69-1.204-2.69-2.69V13.38c0-1.486 1.204-2.69 2.69-2.69"/>
        <path fill="#0067DD" d="M64.484 11.96c-.821 0-1.545.42-1.966 1.059l-.075.153-.014-.006c-.19.339-.297.73-.297 1.146 0 1.3 1.053 2.353 2.352 2.353 1.3 0 2.353-1.054 2.353-2.353 0-1.3-1.054-2.352-2.353-2.352"/>
        <path fill="#29A3EF" d="M66.792 25.205c.142.806-.124 1.68-.831 2.269-.08.066-.161.131-.244.194.672-.414 1.12-1.156 1.12-2.004 0-.157-.016-.31-.045-.459"/>
        <path fill="#0067DD" d="M64.484 23.312c-1.3 0-2.352 1.053-2.352 2.352 0 .403.1.781.278 1.112l.013-.006.078.161c.419.653 1.15 1.086 1.983 1.086.452 0 .874-.128 1.233-.349.083-.063.164-.128.244-.194.707-.589.973-1.463.83-2.269-.213-1.08-1.165-1.893-2.307-1.893M36.92 12.09c-4.35 0-7.877 3.526-7.877 7.877 0 4.35 3.526 7.876 7.877 7.876 4.35 0 7.876-3.526 7.876-7.876h-.313c0 2.088-.847 3.978-2.215 5.347-1.37 1.369-3.26 2.215-5.348 2.215-2.09 0-3.98-.846-5.348-2.215-1.369-1.369-2.215-3.259-2.215-5.347 0-2.09.846-3.98 2.215-5.349 1.369-1.368 3.258-2.215 5.348-2.215 2.089 0 3.979.847 5.348 2.215 1.368 1.37 2.215 3.26 2.215 5.349h.313c0-4.35-3.526-7.877-7.876-7.877"/>
        <path fill="#0067DD" d="M59.117 12.09c-4.35 0-7.876 3.526-7.877 7.877 0 4.35 3.527 7.876 7.877 7.876 1.234 0 2.403-.284 3.443-.79l-.059-.122c-.032-.05-.062-.102-.09-.155-.996.483-2.113.753-3.294.753-2.089 0-3.979-.846-5.348-2.215-1.369-1.369-2.215-3.259-2.215-5.347 0-2.09.846-3.98 2.215-5.349 1.37-1.368 3.26-2.215 5.348-2.215 1.188 0 2.312.274 3.313.763.027-.05.057-.1.089-.147l.063-.128c-1.046-.513-2.223-.801-3.465-.801"/>
        <path fill="#003FCB" d="M62.518 13.019l-.089.146.014.007.075-.153M62.423 26.77l-.013.006c.029.053.059.105.091.155l-.078-.16"/>
        <path fill="#5CAF71" d="M96.537 11.527c-.1.036-.197.078-.29.127l.113-.053.177-.074m-1.405 1.89l-.002.096c0 1.163.943 2.105 2.105 2.105.36 0 .698-.09.994-.249l-.165.069c-.273.116-.558.172-.838.172-.74 0-1.447-.392-1.806-1.091l-.064-.124c-.16-.314-.232-.65-.224-.978"/>
        <path fill="#00772F" d="M97.235 11.409c-.244 0-.48.042-.698.118l-.176.075c-.039.016-.076.034-.113.052-.639.34-1.082.998-1.116 1.763-.008.328.063.664.225.978l.063.124c.359.699 1.065 1.091 1.807 1.091.28 0 .564-.056.837-.172l.165-.069c.661-.354 1.111-1.053 1.111-1.856 0-.146-.015-.29-.043-.427l-.049-.186h.002c-.263-.863-1.066-1.491-2.015-1.491"/>
        <path fill="#5CAF71" d="M111.397 26.211v.723c0 .553-.194 1.06-.518 1.458.363-.439.58-1.002.58-1.617 0-.194-.02-.382-.062-.564m-.763 2.438c-.409.37-.952.595-1.548.595h-.414c-.229 0-.45-.033-.66-.095.282.107.588.166.907.166.662 0 1.264-.252 1.715-.666"/>
        <path fill="#00772F" d="M108.92 24.235c-1.404 0-2.541 1.137-2.541 2.54 0 1.084.678 2.009 1.634 2.374.209.062.43.095.66.095h.413c.596 0 1.139-.225 1.548-.595.088-.08.17-.165.244-.256.325-.398.52-.906.52-1.46v-.722c-.257-1.131-1.27-1.976-2.479-1.976"/>
        <path fill="#FF8F83" d="M118.929 3.652c-1.475 0-2.67 1.196-2.67 2.67v.01c.005-1.478 1.201-2.674 2.68-2.68h-.01"/>
        <path fill="#FF463C" d="M118.938 3.652c-1.478.006-2.674 1.202-2.68 2.68.006 1.47 1.199 2.66 2.67 2.66 1.475 0 2.67-1.195 2.67-2.67 0-1.471-1.19-2.664-2.66-2.67"/>
        <path fill="#5CAF71" d="M87.409 10.595c-1.373 0-2.495 1.075-2.569 2.429l.036.044c0-1.314 1.065-2.38 2.38-2.38h.344c.503 0 .968.156 1.352.421-.43-.323-.964-.514-1.543-.514"/>
        <path fill="#00772F" d="M87.6 10.688h-.344c-1.315 0-2.38 1.066-2.38 2.38l-.036-.044c-.003.047-.004.095-.004.143 0 1.42 1.152 2.572 2.573 2.572 1.42 0 2.571-1.152 2.571-2.572 0-.842-.404-1.589-1.028-2.058-.384-.265-.85-.42-1.352-.42"/>
        <path fill="#FF463C" d="M145.415 13.513c0 1.475-1.195 2.67-2.67 2.67-1.475 0-2.67-1.195-2.67-2.67 0-1.474 1.195-2.67 2.67-2.67 1.475 0 2.67 1.196 2.67 2.67M145.415 26.775c0 1.475-1.195 2.67-2.67 2.67-1.475 0-2.67-1.195-2.67-2.67 0-1.475 1.195-2.67 2.67-2.67 1.475 0 2.67 1.195 2.67 2.67"/>
        <path fill="#FF8F83" d="M121.397 27.106c0 1.181-.957 2.138-2.138 2.138h-.862c-.284 0-.554-.055-.801-.155.392.227.847.356 1.333.356 1.3 0 2.384-.93 2.62-2.161l-.152-.178"/>
        <path fill="#FF463C" d="M118.929 24.105c-1.475 0-2.67 1.195-2.67 2.67 0 .99.537 1.853 1.337 2.315.247.1.517.154.8.154h.863c1.18 0 2.138-.957 2.138-2.138.05.06.101.12.153.178.032-.165.048-.335.048-.509 0-1.475-1.195-2.67-2.67-2.67M119.085 8.993L118.929 8.993 118.772 8.993 118.772 24.105 119.085 24.105z"/>
        <path fill="#00772F" d="M102.14 12.574c-1.623 0-2.849.315-2.89.326.018.06.034.123.047.186l.03.117.053-.013c.249-.059 1.356-.302 2.76-.302.458 0 .948.026 1.45.092 2.971.39 5.172 2.969 5.172 5.97v5.285h.314V18.95c0-3.155-2.314-5.87-5.445-6.281-.518-.068-1.02-.095-1.49-.095"/>
        <path fill="#00510F" d="M99.25 12.9h-.002l.049.186c-.013-.063-.029-.125-.047-.186"/>
        <path fill="#00772F" d="M87.565 15.739h-.313v10.16s0 .03-.003.088c-.014.448-.144 2.5-1.156 4.42-.506.96-1.23 1.887-2.268 2.574-1.037.687-2.391 1.138-4.176 1.139-1.187 0-2.565-.201-4.162-.669l-.087.301c1.62.475 3.026.681 4.25.681 1.959 0 3.446-.533 4.563-1.338 1.675-1.209 2.51-3.011 2.928-4.503.42-1.493.424-2.684.424-2.693V15.74"/>
        <path fill="#FF463C" d="M142.588 16.184L142.588 24.105 142.902 24.105 142.902 16.184"/>
        <path fill="#0067DD" d="M10.198 7.31c-1.475 0-2.878.144-4.053.322-1.943.295-3.367 1.975-3.367 3.938h.313-.313v10.97c0 1.971 1.436 3.65 3.385 3.941 1.237.185 2.724.337 4.281.337 2.572 0 5.338-.412 7.478-1.79 2.143-1.377 3.636-3.74 3.632-7.546 0-.139-.002-.28-.006-.422-.107-3.982-1.668-6.446-3.848-7.883-2.178-1.439-4.95-1.865-7.502-1.866M3.09 11.57c0-1.81 1.314-3.357 3.1-3.627 1.164-.177 2.552-.319 4.007-.319h.008c2.516 0 5.227.429 7.322 1.815 2.094 1.388 3.594 3.723 3.706 7.63.004.14.006.277.006.413-.004 3.726-1.432 5.953-3.488 7.282-2.055 1.327-4.762 1.74-7.3 1.74h-.008c-1.537 0-3.009-.15-4.234-.333-1.796-.269-3.119-1.815-3.119-3.63V11.57"/>
        <g transform="translate(138.925 .148)">
            <mask id="prefix__f" fill="#fff">
                <use xlink:href="#prefix__e"/>
            </mask>
            <path fill="#FE3500" d="M5.207 3.91C2.537 4.932 2.487 1.728 2.611.166 1.544 1.15.283 2.728.048 4.816-.22 7.183 1.442 9.322 3.82 9.487c.818.057 1.683-.132 2.465-.805 1.485-1.28 1.284-3.511-.115-4.634-.27-.217-.639-.263-.963-.139" mask="url(#prefix__f)"/>
        </g>
        <path fill="#D22300" d="M143.814 5.429c-.548 1.023-1.414.053-1.79-.46-.066.586-.034 1.405.447 2.108.547.797 1.625 1.013 2.399.432.265-.2.48-.487.542-.902.116-.786-.538-1.418-1.266-1.391-.14.005-.265.089-.332.213"/>
    </g>
</svg>
