<?xml version="1.0" encoding="UTF-8" standalone="no"?>
<!DOCTYPE svg PUBLIC "-//W3C//DTD SVG 1.1//EN" "http://www.w3.org/Graphics/SVG/1.1/DTD/svg11.dtd">
<svg version="1.1" xmlns="http://www.w3.org/2000/svg" xmlns:xlink="http://www.w3.org/1999/xlink" preserveAspectRatio="xMidYMid meet" viewBox="9.178483900742776 243.70070040127277 621.6430321985146 152.59859919745443" width="621.64" height="152.6"><defs><path d="M177.57 288.12L194.12 274.85C193.83 287.55 193.67 294.61 193.64 296.02C193.64 296.02 184.03 295.1 177.57 288.12" id="aIBTX61xO"></path><path d="M194.12 274.85C193.83 287.55 193.67 294.61 193.64 296.02C193.64 296.02 189.71 295.79 186.83 294.36C187.8 291.76 190.23 285.26 194.12 274.85Z" id="f27xkNtXYK"></path><path d="M154.67 288.12L138.13 274.85C138.41 287.55 138.57 294.61 138.6 296.02C138.6 296.02 148.21 295.1 154.67 288.12" id="a1bPQRdpF3"></path><path d="M138.13 274.85C138.41 287.55 138.57 294.61 138.6 296.02C138.6 296.02 142.53 295.79 145.41 294.36C144.44 291.76 142.01 285.26 138.13 274.85Z" id="b16AZKvByE"></path><path d="M54.63 347.18C75.01 347.18 88.35 335.01 88.35 315.37C88.35 295.72 75.01 283.55 54.63 283.55C42.65 283.55 32.93 293.26 32.93 305.25C32.93 307.27 32.93 323.46 32.93 325.48C32.93 337.47 42.65 347.18 54.63 347.18M9.18 285.75C9.18 273.77 18.89 264.05 30.88 264.05C33.37 264.05 53.31 264.05 55.8 264.05C89.38 264.05 112.4 284.28 112.4 315.37C112.4 346.45 89.38 366.68 55.8 366.68C53.31 366.68 33.37 366.68 30.88 366.68C18.89 366.68 9.18 356.97 9.18 344.98C9.18 333.14 9.18 297.6 9.18 285.75Z" id="bVglWQNRs"></path><path d="M186.28 327.24C186.28 313.61 177.63 305.4 166.19 305.4C154.76 305.4 145.96 313.61 145.96 327.24C145.96 340.88 154.76 349.09 166.19 349.09C177.63 349.09 186.28 340.88 186.28 327.24M122.8 327.24C122.8 303.49 141.12 286.63 166.19 286.63C191.27 286.63 209.45 303.49 209.45 327.24C209.45 350.99 191.27 367.86 166.19 367.86C141.12 367.86 122.8 350.99 122.8 327.24" id="b2ZwW3Eroz"></path><path d="M218.82 327.24C218.82 303.49 237.15 286.63 262.81 286.63C273.58 286.63 282.87 289.67 289.62 295.35C295.17 300.01 294.3 308.78 287.92 312.21C283.98 314.33 279.21 313.53 275.93 310.49C272.19 307.01 267.63 305.4 262.66 305.4C251.08 305.4 241.99 313.46 241.99 327.24C241.99 341.02 251.08 349.09 262.66 349.09C267.64 349.09 272.19 347.54 275.93 344.05C279.22 340.99 284.02 340.21 287.96 342.36C294.28 345.81 295.11 354.55 289.57 359.16C282.83 364.77 273.56 367.86 262.81 367.86C237.15 367.86 218.82 350.99 218.82 327.24" id="c1eYgy8rpi"></path><path d="M369.1 324.75C369.1 313.17 360.45 305.4 348.43 305.4C336.4 305.4 327.61 313.17 327.61 324.75C327.61 336.33 336.4 344.1 348.43 344.1C360.45 344.1 369.1 336.33 369.1 324.75M381.56 287.8C387.15 287.8 391.68 292.33 391.68 297.92C391.68 303.48 391.68 347.93 391.68 353.49C391.68 382.81 375.85 396.3 347.4 396.3C336.45 396.3 325.73 394.33 317.15 390.46C312.3 388.27 310.42 382.32 313.01 377.66C313.03 377.62 313.18 377.35 313.2 377.31C315.55 373.06 320.78 371.48 325.19 373.51C331.31 376.31 338.69 377.97 345.64 377.97C361.77 377.97 368.81 370.64 368.81 356.42C368.81 356.08 368.81 353.38 368.81 353.05C362.79 359.65 354.14 362.87 343.88 362.87C322.04 362.87 304.44 347.77 304.44 324.75C304.44 301.73 322.04 286.63 343.88 286.63C354.88 286.63 363.97 290.29 369.98 297.92C369.98 292.33 374.51 287.8 380.1 287.8C380.39 287.8 381.27 287.8 381.56 287.8Z" id="e7CJqLnJe"></path><path d="M459.85 341.76C459.85 341.76 459.85 341.76 459.85 341.76C459.85 337.3 456.24 333.69 451.78 333.69C451.02 333.69 444.92 333.69 444.16 333.69C433.46 333.69 430.08 337.65 430.08 342.93C430.08 348.65 434.92 352.46 442.99 352.46C450.61 352.46 457.21 348.94 459.85 341.76M482.72 321.67C482.72 342.78 482.72 354.51 482.72 356.86C482.72 362.28 478.32 366.68 472.9 366.68C472.72 366.68 471.31 366.68 471.14 366.68C465.71 366.68 461.31 362.28 461.31 356.86C457.06 364.04 448.85 367.86 437.27 367.86C418.79 367.86 407.8 357.59 407.8 343.96C407.8 330.03 417.62 320.35 441.67 320.35C442.62 320.35 450.3 320.35 451.26 320.35C457.05 320.35 459.94 313.29 455.77 309.26C452.78 306.37 448.1 304.81 441.67 304.81C436.29 304.81 430.8 305.96 426.04 307.99C421.81 309.8 416.9 308.18 414.8 304.08C414.77 304.03 414.56 303.61 414.53 303.56C412.25 299.11 414.21 293.66 418.8 291.68C426.46 288.39 435.64 286.63 444.75 286.63C468.79 286.63 482.72 297.77 482.72 321.67" id="g3b1nxtE2K"></path><path d="M566.14 327.24C566.14 313.61 557.49 305.4 546.05 305.4C534.61 305.4 525.96 313.61 525.96 327.24C525.96 340.88 534.61 349.09 546.05 349.09C557.49 349.09 566.14 340.88 566.14 327.24M589.3 327.24C589.3 352.02 572.15 367.86 550.01 367.86C539.45 367.86 530.95 364.48 525.23 357.59C525.23 362.61 521.16 366.68 516.14 366.68C515.77 366.68 512.84 366.68 512.47 366.68C507.45 366.68 503.38 362.61 503.38 357.59C503.38 348.77 503.38 278.15 503.38 269.33C503.38 263.01 508.5 257.89 514.82 257.89C521.14 257.89 526.26 263.01 526.26 269.33C526.26 270.56 526.26 280.44 526.26 281.68C526.26 287.05 531.65 290.95 536.65 288.98C540.62 287.4 545.1 286.63 550.01 286.63C572.15 286.63 589.3 302.46 589.3 327.24" id="ek7pMKwWP"></path><path d="M615.98 287.8C615.98 287.8 615.98 287.8 615.98 287.8C622.29 287.8 627.41 292.92 627.41 299.24C627.41 304.84 627.41 349.65 627.41 355.25C627.41 361.56 622.29 366.68 615.98 366.68C609.66 366.68 604.54 361.56 604.54 355.25C604.54 349.65 604.54 304.84 604.54 299.24C604.54 292.92 609.66 287.8 615.98 287.8" id="d1fBGuLZDa"></path><path d="M293.3 303.21C293.3 308.73 288.82 313.2 283.3 313.2C277.77 313.2 273.3 308.73 273.3 303.21C273.3 297.68 277.77 293.21 283.3 293.21C288.82 293.21 293.3 297.68 293.3 303.21" id="d2ih8kcxr"></path><path d="M293.3 351.46C293.3 356.99 288.82 361.46 283.3 361.46C277.77 361.46 273.3 356.99 273.3 351.46C273.3 345.94 277.77 341.46 283.3 341.46C288.82 341.46 293.3 345.94 293.3 351.46" id="ezqYWImid"></path><path d="M166.12 360.06C148 360.06 133.31 345.37 133.31 327.24C133.31 309.12 148 294.43 166.12 294.43C184.25 294.43 198.94 309.12 198.94 327.24C198.94 345.37 184.25 360.06 166.12 360.06Z" id="a1Q4aJar0"></path><path d="M274.83 356.76C270.49 358.87 265.62 360.06 260.48 360.06C242.36 360.06 227.66 345.37 227.66 327.24C227.66 309.12 242.36 294.43 260.48 294.43C265.66 294.43 270.56 295.63 274.91 297.76" id="d2yj6p73Kh"></path><path d="M431.47 299.81C431.47 304.75 427.46 308.76 422.52 308.76C417.58 308.76 413.57 304.75 413.57 299.81C413.57 294.87 417.58 290.86 422.52 290.86C427.46 290.86 431.47 294.87 431.47 299.81" id="b2ljHsw8Pe"></path><path d="M482.99 356.19C482.99 362.15 478.15 366.98 472.19 366.98C466.22 366.98 461.39 362.15 461.39 356.19C461.39 350.22 466.22 345.39 472.19 345.39C478.15 345.39 482.99 350.22 482.99 356.19" id="a3rZJavm4u"></path><path d="M526.08 269.24C526.08 275.51 521 280.59 514.73 280.59C508.46 280.59 503.38 275.51 503.38 269.24C503.38 262.97 508.46 257.89 514.73 257.89C521 257.89 526.08 262.97 526.08 269.24" id="b1oTJzB3EU"></path><path d="M391.68 298.34C391.68 304.37 386.78 309.27 380.75 309.27C374.71 309.27 369.81 304.37 369.81 298.34C369.81 292.3 374.71 287.4 380.75 287.4C386.78 287.4 391.68 292.3 391.68 298.34" id="b989lsLA9"></path><path d="M331.2 382.32C331.2 387.6 326.92 391.88 321.64 391.88C316.36 391.88 312.09 387.6 312.09 382.32C312.09 377.05 316.36 372.77 321.64 372.77C326.92 372.77 331.2 377.05 331.2 382.32" id="aizxa5Frd"></path><path d="M627.33 299.81C627.33 306.08 622.25 311.16 615.98 311.16C609.71 311.16 604.63 306.08 604.63 299.81C604.63 293.54 609.71 288.46 615.98 288.46C622.25 288.46 627.33 293.54 627.33 299.81" id="diyshVu7"></path><path d="M627.33 356.19C627.33 362.45 622.25 367.54 615.98 367.54C609.71 367.54 604.63 362.45 604.63 356.19C604.63 349.92 609.71 344.83 615.98 344.83C622.25 344.83 627.33 349.92 627.33 356.19" id="c3SL2agAgT"></path><path d="M526.08 356.19C526.08 362.45 521 367.54 514.73 367.54C508.46 367.54 503.38 362.45 503.38 356.19C503.38 349.92 508.46 344.83 514.73 344.83C521 344.83 526.08 349.92 526.08 356.19" id="aInD4i2K"></path><path d="M514.73 280.59L514.73 344.83" id="deDQaZNBW"></path><path d="M431.24 297.85C431.24 297.85 439.85 295.6 449.62 296.88C462.59 298.58 472.19 309.84 472.19 322.92C472.19 324.42 472.19 331.91 472.19 345.39" id="bT7r6dgln"></path><path d="M380.75 309.27C380.75 335.18 380.75 349.58 380.75 352.46C380.75 352.46 380.56 400.05 329.89 385.2" id="b1Vcn4Nzsb"></path><path d="M615.98 311.16L615.98 344.83" id="c2VCrAOPCA"></path><path d="M21.65 338.18C21.65 346.23 27.52 353.08 35.48 354.28C58.32 357.7 101.32 358.41 100.11 314.91C98.91 271.69 57.58 272.11 35.4 275.47C27.47 276.67 21.65 283.53 21.65 291.55C21.65 300.88 21.65 333.52 21.65 338.18Z" id="byPRoUtE1"></path><path d="M621.87 259.62C610.52 263.96 610.31 250.34 610.83 243.7C606.3 247.89 600.94 254.59 599.94 263.46C598.8 273.53 605.87 282.63 615.98 283.33C619.45 283.57 623.13 282.77 626.45 279.9C632.77 274.47 631.91 264.98 625.97 260.21C624.81 259.28 623.25 259.09 621.87 259.62" id="a27LY7BtZu"></path><path d="M620.52 265.44C618.19 269.79 614.51 265.67 612.91 263.49C612.63 265.98 612.77 269.46 614.81 272.45C617.14 275.84 621.72 276.75 625.01 274.29C626.14 273.44 627.05 272.22 627.31 270.45C627.81 267.11 625.03 264.43 621.93 264.54C621.34 264.56 620.8 264.92 620.52 265.44" id="b17hcejai"></path></defs><g><g><g><use xlink:href="#aIBTX61xO" opacity="1" fill="#ffd700" fill-opacity="1"></use><g><use xlink:href="#aIBTX61xO" opacity="1" fill-opacity="0" stroke="#000000" stroke-width="1" stroke-opacity="0"></use></g></g><g><use xlink:href="#f27xkNtXYK" opacity="1" fill="#ffb700" fill-opacity="1"></use><g><use xlink:href="#f27xkNtXYK" opacity="1" fill-opacity="0" stroke="#000000" stroke-width="1" stroke-opacity="0"></use></g></g><g><use xlink:href="#a1bPQRdpF3" opacity="1" fill="#ffd700" fill-opacity="1"></use><g><use xlink:href="#a1bPQRdpF3" opacity="1" fill-opacity="0" stroke="#000000" stroke-width="1" stroke-opacity="0"></use></g></g><g><use xlink:href="#b16AZKvByE" opacity="1" fill="#ffb700" fill-opacity="1"></use><g><use xlink:href="#b16AZKvByE" opacity="1" fill-opacity="0" stroke="#000000" stroke-width="1" stroke-opacity="0"></use></g></g><g><use xlink:href="#bVglWQNRs" opacity="1" fill="#29a3ef" fill-opacity="1"></use><g><use xlink:href="#bVglWQNRs" opacity="1" fill-opacity="0" stroke="#000000" stroke-width="1" stroke-opacity="0"></use></g></g><g><use xlink:href="#b2ZwW3Eroz" opacity="1" fill="#29a3ef" fill-opacity="1"></use><g><use xlink:href="#b2ZwW3Eroz" opacity="1" fill-opacity="0" stroke="#000000" stroke-width="1" stroke-opacity="0"></use></g></g><g><use xlink:href="#c1eYgy8rpi" opacity="1" fill="#29a3ef" fill-opacity="1"></use><g><use xlink:href="#c1eYgy8rpi" opacity="1" fill-opacity="0" stroke="#000000" stroke-width="1" stroke-opacity="0"></use></g></g><g><use xlink:href="#e7CJqLnJe" opacity="1" fill="#5caf71" fill-opacity="1"></use><g><use xlink:href="#e7CJqLnJe" opacity="1" fill-opacity="0" stroke="#000000" stroke-width="1" stroke-opacity="0"></use></g></g><g><use xlink:href="#g3b1nxtE2K" opacity="1" fill="#5caf71" fill-opacity="1"></use><g><use xlink:href="#g3b1nxtE2K" opacity="1" fill-opacity="0" stroke="#000000" stroke-width="1" stroke-opacity="0"></use></g></g><g><use xlink:href="#ek7pMKwWP" opacity="1" fill="#ff9083" fill-opacity="1"></use><g><use xlink:href="#ek7pMKwWP" opacity="1" fill-opacity="0" stroke="#000000" stroke-width="1" stroke-opacity="0"></use></g></g><g><use xlink:href="#d1fBGuLZDa" opacity="1" fill="#ff9083" fill-opacity="1"></use><g><use xlink:href="#d1fBGuLZDa" opacity="1" fill-opacity="0" stroke="#000000" stroke-width="1" stroke-opacity="0"></use></g></g><g><use xlink:href="#d2ih8kcxr" opacity="1" fill="#29a3ef" fill-opacity="1"></use><g><use xlink:href="#d2ih8kcxr" opacity="1" fill-opacity="0" stroke="#000000" stroke-width="1" stroke-opacity="0"></use></g></g><g><use xlink:href="#ezqYWImid" opacity="1" fill="#29a3ef" fill-opacity="1"></use><g><use xlink:href="#ezqYWImid" opacity="1" fill-opacity="0" stroke="#000000" stroke-width="1" stroke-opacity="0"></use></g></g><g><use xlink:href="#a1Q4aJar0" opacity="1" fill="#000000" fill-opacity="0"></use><g><use xlink:href="#a1Q4aJar0" opacity="1" fill-opacity="0" stroke="#29a3ef" stroke-width="1" stroke-opacity="1"></use></g></g><g><use xlink:href="#d2yj6p73Kh" opacity="1" fill="#000000" fill-opacity="0"></use><g><use xlink:href="#d2yj6p73Kh" opacity="1" fill-opacity="0" stroke="#29a3ef" stroke-width="1" stroke-opacity="1"></use></g></g><g><use xlink:href="#b2ljHsw8Pe" opacity="1" fill="#5caf71" fill-opacity="1"></use><g><use xlink:href="#b2ljHsw8Pe" opacity="1" fill-opacity="0" stroke="#000000" stroke-width="1" stroke-opacity="0"></use></g></g><g><use xlink:href="#a3rZJavm4u" opacity="1" fill="#5caf71" fill-opacity="1"></use><g><use xlink:href="#a3rZJavm4u" opacity="1" fill-opacity="0" stroke="#000000" stroke-width="1" stroke-opacity="0"></use></g></g><g><use xlink:href="#b1oTJzB3EU" opacity="1" fill="#ff9083" fill-opacity="1"></use><g><use xlink:href="#b1oTJzB3EU" opacity="1" fill-opacity="0" stroke="#000000" stroke-width="1" stroke-opacity="0"></use></g></g><g><use xlink:href="#b989lsLA9" opacity="1" fill="#5caf71" fill-opacity="1"></use><g><use xlink:href="#b989lsLA9" opacity="1" fill-opacity="0" stroke="#000000" stroke-width="1" stroke-opacity="0"></use></g></g><g><use xlink:href="#aizxa5Frd" opacity="1" fill="#5caf71" fill-opacity="1"></use><g><use xlink:href="#aizxa5Frd" opacity="1" fill-opacity="0" stroke="#000000" stroke-width="1" stroke-opacity="0"></use></g></g><g><use xlink:href="#diyshVu7" opacity="1" fill="#ff463c" fill-opacity="1"></use><g><use xlink:href="#diyshVu7" opacity="1" fill-opacity="0" stroke="#000000" stroke-width="1" stroke-opacity="0"></use></g></g><g><use xlink:href="#c3SL2agAgT" opacity="1" fill="#ff463c" fill-opacity="1"></use><g><use xlink:href="#c3SL2agAgT" opacity="1" fill-opacity="0" stroke="#000000" stroke-width="1" stroke-opacity="0"></use></g></g><g><use xlink:href="#aInD4i2K" opacity="1" fill="#ff9083" fill-opacity="1"></use><g><use xlink:href="#aInD4i2K" opacity="1" fill-opacity="0" stroke="#000000" stroke-width="1" stroke-opacity="0"></use></g></g><g><use xlink:href="#deDQaZNBW" opacity="1" fill="#000000" fill-opacity="0"></use><g><use xlink:href="#deDQaZNBW" opacity="1" fill-opacity="0" stroke="#ff9083" stroke-width="1" stroke-opacity="1"></use></g></g><g><use xlink:href="#bT7r6dgln" opacity="1" fill="#000000" fill-opacity="0"></use><g><use xlink:href="#bT7r6dgln" opacity="1" fill-opacity="0" stroke="#5caf71" stroke-width="1" stroke-opacity="1"></use></g></g><g><use xlink:href="#b1Vcn4Nzsb" opacity="1" fill="#000000" fill-opacity="0"></use><g><use xlink:href="#b1Vcn4Nzsb" opacity="1" fill-opacity="0" stroke="#5caf71" stroke-width="1" stroke-opacity="1"></use></g></g><g><use xlink:href="#c2VCrAOPCA" opacity="1" fill="#000000" fill-opacity="0"></use><g><use xlink:href="#c2VCrAOPCA" opacity="1" fill-opacity="0" stroke="#ff463c" stroke-width="1" stroke-opacity="1"></use></g></g><g><use xlink:href="#byPRoUtE1" opacity="1" fill="#000000" fill-opacity="0"></use><g><use xlink:href="#byPRoUtE1" opacity="1" fill-opacity="0" stroke="#29a3ef" stroke-width="1" stroke-opacity="1"></use></g></g><g><use xlink:href="#a27LY7BtZu" opacity="1" fill="#fe3500" fill-opacity="1"></use><g><use xlink:href="#a27LY7BtZu" opacity="1" fill-opacity="0" stroke="#000000" stroke-width="1" stroke-opacity="0"></use></g></g><g><use xlink:href="#b17hcejai" opacity="1" fill="#d22300" fill-opacity="1"></use><g><use xlink:href="#b17hcejai" opacity="1" fill-opacity="0" stroke="#000000" stroke-width="1" stroke-opacity="0"></use></g></g></g></g></svg>