<svg class="icon svg-icon svg-icon-insert-apps" viewBox="0 0 32 32"><g fill-rule="evenodd"><path d="M24.008 6A2.994 2.994 0 0 1 27 9v5h-2V9c0-.555-.444-1-.992-1H5.992C5.455 8 5 8.448 5 9v14c0 .555.444 1 .992 1H23v2H5.992A2.994 2.994 0 0 1 3 23V9c0-1.65 1.346-3 2.992-3h18.016zM27 16v4h4v2h-4v4h-2v-4h-4v-2h4v-4h2zM17 9a1 1 0 1 1 0 2 1 1 0 0 1 0-2zm3 0a1 1 0 1 1 0 2 1 1 0 0 1 0-2zm3 0a1 1 0 1 1 0 2 1 1 0 0 1 0-2z"></path><path opacity="0.699999988" d="M5 12h20v1H5z" fill-rule="nonzero"></path></g></svg>