<svg xmlns="http://www.w3.org/2000/svg" width="46" height="46" viewBox="0 0 46 46">
    <g fill="none" fill-rule="evenodd" stroke-width="1.2" transform="translate(1 1)">
        <rect width="44" height="44" stroke="#E4E4E4" rx="22"/>
        <path stroke="#BABABA" d="M26.582 28.865c2.26-1.86 4.268-4.08 5.631-6.663l.06-.115.108-.212c.396-.826.619-1.759.619-2.747C33 15.743 30.38 13 27.15 13c-2.186 0-4.095 1.258-5.1 3.118-.017.032-.027.057-.051.057-.028 0-.033-.023-.05-.054C20.945 14.258 19.038 13 16.85 13 13.62 13 11 15.743 11 19.128c0 .869.173 1.696.485 2.445l.01.057s2.307 5.611 10.3 10.272L22 32l.19-.098c1.5-.874 2.995-1.886 4.392-3.037z"/>
    </g>
</svg>
