<svg class="icon svg-icon svg-icon-insert-number-list" viewBox="0 0 32 32"><path d="M12 8h14v2H12V8zm0 14h14v2H12v-2zm0-7h14v2H12v-2zm-3.998-4H6.827V8.732c0-.275.006-.527.018-.755a2.55 2.55 0 0 1-.27.275l-.486.4-.61-.737L6.95 6.717H8V11h.002zm.528 7H5.42v-.762l1.047-1.057c.3-.31.494-.52.586-.64.092-.11.155-.21.192-.29a.637.637 0 0 0 .054-.26c0-.11-.04-.2-.11-.26a.485.485 0 0 0-.31-.094c-.138 0-.27.04-.41.115-.14.077-.29.19-.47.34l-.63-.75c.22-.195.407-.337.558-.422.15-.085.315-.15.49-.195a2.44 2.44 0 0 1 .598-.068c.277 0 .524.05.742.147.218.097.387.237.507.417s.18.38.18.6c0 .17-.02.323-.063.466a1.623 1.623 0 0 1-.195.42c-.09.14-.206.283-.35.435-.147.153-.457.44-.93.868v.03h1.62V18h.004zm-.144 3.646c0 .265-.08.493-.243.684-.163.19-.397.328-.704.414v.018c.71.09 1.07.427 1.07 1.013 0 .4-.16.712-.48.94-.317.23-.755.344-1.315.344-.23 0-.444-.02-.64-.05-.197-.04-.41-.1-.638-.19v-.96c.187.093.38.164.572.21.193.045.373.067.537.067.255 0 .44-.035.556-.106.115-.07.173-.183.173-.335 0-.118-.03-.208-.09-.27-.06-.065-.16-.11-.295-.145a2.46 2.46 0 0 0-.525-.047h-.26v-.87h.27c.587 0 .88-.15.88-.45 0-.116-.043-.2-.13-.255a.63.63 0 0 0-.35-.084c-.273 0-.556.092-.85.275l-.48-.77c.227-.16.46-.27.696-.337.237-.067.51-.1.816-.1.444 0 .79.09 1.044.264.253.174.38.416.38.725l.006.015z" fill-rule="evenodd"></path></svg>