<svg xmlns="http://www.w3.org/2000/svg" width="46" height="46" viewBox="0 0 46 46">
    <g fill="none" fill-rule="evenodd" transform="translate(2 2)">
        <rect width="42" height="42" fill="#FFF" stroke="#E4E4E4" stroke-width="1.2" rx="21"/>
        <g stroke="#1F1F1F">
            <path d="M13.668 10.915c0 1.511-1.225 2.735-2.735 2.735-1.511 0-2.735-1.224-2.735-2.735 0-1.51 1.224-2.735 2.735-2.735 1.51 0 2.735 1.224 2.735 2.735zM5.97 3.235c0 1.511-1.225 2.735-2.735 2.735C1.725 5.97.5 4.746.5 3.235.5 1.725 1.724.5 3.235.5 4.745.5 5.97 1.724 5.97 3.235zM5.97 18.56c0 1.51-1.225 2.734-2.735 2.734C1.725 21.294.5 20.07.5 18.56c0-1.51 1.224-2.735 2.735-2.735 1.51 0 2.735 1.224 2.735 2.735zM5.104 16.744L8.937 12.911M5.104 5.086L8.937 8.919" transform="translate(15 10)"/>
        </g>
    </g>
</svg>
