<svg class="icon svg-icon svg-icon-strikethrough" viewBox="0 0 32 32"><path d="M17.632 18.837c0 .504-.186.905-.56 1.204-.374.3-.953.45-1.74.45a7.43 7.43 0 0 1-1.738-.22 9.21 9.21 0 0 1-1.764-.614v1.877c.874.426 1.998.64 3.37.64 1.373 0 2.45-.31 3.23-.922a2.95 2.95 0 0 0 1.13-1.964 4 4 0 0 0 .04-.576c0-.25-.02-.484-.06-.704h-2.15c.16.238.242.518.242.829zM12.63 15c-.44-.57-.66-1.253-.66-2.048 0-1.013.36-1.81 1.08-2.39.72-.582 1.686-.872 2.899-.872 1.162 0 2.32.254 3.471.764l-.63 1.618c-1.08-.454-2.044-.68-2.891-.68-.64 0-1.129.14-1.461.42-.333.278-.5.648-.5 1.107 0 .31.068.58.2.803.134.224.352.436.656.635.256.17.684.38 1.284.637H12.63V15zM8 16h15v1H8v-1z" fill-rule="evenodd"></path></svg>