<svg viewBox="-120 -90 840 720">
 <g>
  <path stroke="null" id="svg_1" d="m0,72.117004l0,62.956036l51.137627,0l0,-20.985106l76.706003,0l0,251.824143l-51.137627,0l0,41.97093l153.412006,0l0,-41.97093l-51.137627,0l0,-251.824143l76.706003,0l0,20.985106l51.137627,0l0,-62.956036l-306.824012,0z"/>
  <g stroke="null" id="svg_24">
   <g stroke="null" transform="matrix(0.4810045812251413,0,0,0.4415034623231426,-1653.5711565321058,-794.8088241430588) " id="svg_6">
    <g stroke="null" id="svg_7">
     <path stroke="null" id="svg_8" d="m4760.4295,2222.817636l-16.116,-16.228c-5.072,-5.068 -11.82,-7.86 -19.032,-7.86c-7.208,0 -13.964,2.792 -19.036,7.86l-183.84,183.848l-184.052,-184.052c-5.064,-5.068 -11.82,-7.856 -19.028,-7.856s-13.968,2.788 -19.036,7.856l-16.12,16.128c-10.496,10.488 -10.496,27.572 0,38.06l219.136,219.924c5.064,5.064 11.812,8.632 19.084,8.632l0.084,0c7.212,0 13.96,-3.572 19.024,-8.632l218.932,-219.328c5.072,-5.064 7.856,-12.016 7.864,-19.224c0,-7.212 -2.792,-14.068 -7.864,-19.128z"/>
    </g>
   </g>
  </g>
 </g>
</svg>